<svg width="1024" height="1024" version="1.1" xmlns="http://www.w3.org/2000/svg" desc="Created with imagetracer.js version 1.2.6" ><path fill="rgb(0,0,0)" stroke="rgb(0,0,0)" stroke-width="1" opacity="0" d="M 0 0 L 1024 0 L 1024 1024 L 0 1024 L 0 0 Z M 485 91 L 485 93 L 465 94 L 457 96 L 448 96 L 447 97 L 442 96 L 442 98 L 425 100 L 405 105 L 403 105 L 401 104 L 401 106 L 372 114 L 355 121 L 352 120 L 352 122 Q 320 134 292 151 Q 290 154 289 152 L 286 153 L 288 154 Q 256 172 230 197 Q 227 196 228 199 L 227 199 L 218 208 L 215 208 L 214 212 L 212 213 L 209 217 L 205 220 L 189 238 Q 190 240 187 239 L 171 261 L 168 260 L 169 262 L 169 264 L 153 286 L 129 330 L 115 364 L 110 382 L 108 385 L 98 425 L 94 455 L 93 456 L 92 475 L 91 476 L 91 489 L 90 490 L 90 532 L 90 534 L 91 535 L 91 546 L 92 547 L 92 558 L 91 559 L 93 559 L 94 573 L 97 587 L 96 592 L 98 591 L 105 626 L 117 660 L 115 661 L 117 661 L 135 702 L 150 727 L 147 728 L 151 728 L 153 733 Q 156 734 154 736 L 156 736 L 164 749 L 162 750 L 162 751 L 165 750 L 196 789 Q 195 791 198 790 L 220 814 L 220 815 L 225 818 Q 227 817 226 820 L 236 827 L 237 830 L 265 850 L 269 856 L 270 854 L 291 869 L 290 868 Q 287 870 290 871 L 293 869 L 304 875 L 306 879 L 306 880 L 311 879 L 322 885 L 323 888 L 325 887 L 339 893 L 340 896 L 342 895 L 378 908 L 380 911 L 380 909 L 384 910 L 384 911 L 382 910 L 381 912 L 387 911 L 398 914 L 401 917 L 400 920 L 403 918 L 403 920 L 405 919 L 403 917 L 403 916 L 411 919 L 409 919 L 409 920 Q 413 921 415 919 L 439 924 Q 445 922 443 928 L 458 928 L 459 927 L 490 929 L 492 929 L 495 930 L 533 930 L 534 929 L 561 928 L 562 927 L 570 928 L 569 927 L 604 921 L 609 919 L 615 920 L 614 919 L 650 908 L 650 910 Q 653 911 651 907 L 686 894 L 688 894 L 691 891 L 718 878 L 756 854 Q 781 837 803 815 L 806 814 L 808 811 Q 807 808 810 809 L 822 796 Q 824 797 823 795 L 828 791 L 829 788 L 845 770 Q 844 767 848 768 L 847 767 Q 868 741 884 710 L 888 708 L 886 707 L 893 695 L 903 672 L 916 635 L 918 635 L 917 633 L 928 589 L 930 572 L 932 566 L 935 540 L 935 544 L 936 544 L 935 525 L 936 522 L 935 520 L 936 518 L 936 493 Q 934 491 935 486 L 935 484 L 936 482 L 935 480 L 936 473 L 935 473 L 934 466 L 934 464 Q 936 463 935 466 L 936 466 Q 937 461 933 463 L 932 449 L 927 426 L 928 424 L 925 416 L 926 413 L 924 412 L 920 394 L 920 390 L 920 386 L 919 388 L 901 343 L 903 342 L 900 341 Q 888 310 870 284 L 872 284 L 872 283 Q 871 280 870 282 L 852 257 L 841 244 Q 842 241 839 242 L 835 236 L 822 221 Q 819 222 820 220 L 793 194 Q 790 195 791 192 L 786 188 Q 783 189 784 186 Q 751 161 713 140 Q 710 141 711 139 L 712 137 L 710 138 L 707 138 L 710 137 L 710 136 L 706 137 L 695 132 L 696 129 Q 693 128 694 131 Q 674 121 650 114 L 650 112 L 648 113 L 633 109 L 630 107 L 606 102 L 606 100 L 604 101 L 594 100 L 589 98 L 589 97 L 586 96 L 586 98 L 578 96 L 568 96 L 557 94 L 548 94 L 547 93 L 536 93 L 535 92 L 492 92 L 491 93 L 486 93 Q 487 90 485 91 Z M 465 92 L 465 93 L 467 93 L 465 92 Z M 261 168 L 261 169 L 263 169 L 261 168 Z M 210 210 Q 207 212 210 213 Q 213 212 210 210 Z M 856 258 L 855 261 L 856 261 L 856 258 Z M 132 321 L 130 323 L 132 323 L 132 321 Z M 894 322 L 895 324 L 896 324 L 894 322 Z M 120 344 L 121 348 L 122 345 L 120 344 Z M 919 383 Q 917 386 920 385 L 919 383 Z M 926 408 L 925 411 L 926 411 L 926 408 Z M 934 446 L 932 448 L 933 450 L 934 450 L 934 446 Z M 91 466 L 90 470 L 91 470 L 91 466 Z M 89 499 L 88 503 L 89 503 L 89 499 Z M 89 525 L 88 528 L 89 528 L 89 525 Z M 89 539 L 89 542 L 90 542 Q 91 538 89 539 Z M 91 554 L 90 557 L 91 557 L 91 554 Z M 97 597 L 98 599 Q 99 596 97 597 Z M 99 601 L 98 604 L 99 604 L 99 601 Z M 105 627 L 104 631 L 105 631 L 105 627 Z M 108 636 L 106 638 L 108 638 L 108 636 Z M 917 637 L 916 640 L 917 640 L 917 637 Z M 912 654 L 910 656 L 912 656 L 912 654 Z M 129 690 L 128 693 L 129 693 L 129 690 Z M 153 733 L 152 736 L 153 736 L 153 733 Z M 871 735 L 869 737 L 871 737 L 871 735 Z M 180 774 L 181 776 Q 182 773 180 774 Z M 186 780 L 184 782 L 186 782 Q 187 786 189 783 L 186 780 Z M 831 788 L 832 790 Q 833 787 831 788 Z M 217 812 L 218 814 Q 219 811 217 812 Z M 757 854 L 755 856 L 757 856 L 757 854 Z M 278 862 L 276 863 L 276 864 L 280 863 L 278 862 Z M 745 862 L 743 863 L 743 864 L 746 863 L 745 862 Z M 293 870 Q 291 873 294 872 L 293 870 Z M 314 882 L 312 884 L 315 884 L 314 882 Z M 354 901 L 354 902 L 356 902 L 354 901 Z M 357 902 Q 357 906 359 903 L 357 902 Z M 645 910 L 643 912 L 646 912 L 645 910 Z M 627 916 L 623 918 L 627 918 L 627 916 Z M 434 924 L 434 925 L 436 925 L 434 924 Z M 440 925 L 440 926 L 442 926 L 440 925 Z M 585 925 L 585 926 L 588 926 L 585 925 Z M 437 926 Q 435 929 438 928 L 437 926 Z M 579 926 L 579 928 L 582 928 Q 583 925 579 926 Z M 573 927 L 573 928 L 576 928 L 573 927 Z " /><path fill="rgb(0,0,0)" stroke="rgb(0,0,0)" stroke-width="1" opacity="0" d="M 484.5 95 L 495.5 95 L 496.5 96 Q 498 93.5 503.5 95 L 505.5 95 L 519.5 95 L 521.5 96 L 523.5 96 L 526.5 95 L 528.5 95 Q 534 93.5 535.5 96 L 537.5 95 L 543.5 97 L 546.5 96 L 570.5 98 Q 572 100.5 577.5 99 L 581.5 101 L 584.5 100 Q 586 103.5 587.5 101 Q 592.1 100.4 593.5 103 L 595.5 102 Q 597 105.5 598.5 103 L 602.5 105 L 605.5 104 Q 607 107.5 608.5 105 L 615 106 L 615.5 108 L 617.5 107 L 620.5 109 L 623 108 L 622 110.5 L 624 111.5 Q 623.2 108.9 626.5 110 L 628.5 111 L 629.5 110 L 631.5 112 L 635.5 112 L 638.5 114 L 639.5 113 L 641.5 115 L 642.5 114 L 650.5 118 L 653.5 119 L 655.5 119 L 659.5 121 L 661.5 121 Q 664.8 119.9 664 122.5 L 669 123.5 L 669.5 125 L 672 124 Q 670.9 126.7 673.5 126 L 684 129 L 684.5 131 L 686 130.5 L 686.5 132 L 688 131.5 L 688.5 134 L 690.5 134 L 697.5 137 L 699.5 137 L 703 138 Q 701.9 140.7 704.5 140 L 707 140.5 L 707.5 142 L 709 141.5 L 709.5 143 L 710.5 142 L 713.5 145 L 726.5 151 L 732.5 156 L 743.5 161 L 753.5 169 L 756 169 Q 754.9 171.7 757.5 171 Q 758.6 173.8 762 173 Q 760.9 175.7 763.5 175 L 766 176 L 766.5 178 L 768 177.5 L 767.5 179 Q 772.5 178.5 773 182.5 Q 772.2 185.1 775.5 184 L 778 185 L 779.5 188 Q 782.8 186.9 782 189.5 L 785 191 Q 783.9 193.7 786.5 193 L 792.5 199 L 795 199 L 802.5 208 L 806 209.5 L 810.5 215 L 813 216.5 L 816.5 221 L 820 223.5 Q 819.3 225.8 821.5 225 L 825 230 L 827 230 Q 825.9 232.7 828.5 232 Q 831.3 233.3 829 234.5 L 835 240.5 L 837.5 244 L 839 244 Q 837.5 247.8 840.5 247 L 844 250.5 Q 841.8 251.8 844.5 253 Q 846.8 252.3 846 254.5 L 850 261 L 853 262.5 Q 851.9 265.8 854.5 265 L 856 269 Q 859 267.8 858 271.5 L 861.5 276 L 863 276.5 Q 860.5 278 864 279.5 Q 863.3 282.1 866 281 L 866 283.5 L 867 286 L 869 286 Q 867.5 289.7 870.5 289 L 872 292.5 L 876 301 Q 879 299.8 878 303.5 L 883 314 L 885 314.5 L 885 316.5 L 888 324 L 890 324.5 L 889.5 326 L 891 326.5 L 891 328.5 L 897 339.5 L 898 344.5 L 907 364.5 L 907 367.5 L 911 374.5 L 910 375.5 L 912 379.5 Q 911.8 384.7 915 386.5 L 915 388.5 L 918 396.5 Q 915.5 398 919 399.5 L 918 401.5 L 921 407.5 L 921 409.5 L 922 411.5 L 921 413.5 L 924 420.5 L 924 422.5 Q 923.2 427.8 926 429.5 L 925 431.5 L 927 435.5 L 927 437.5 L 928 442.5 L 928 444.5 L 929 447.5 L 929 449.5 L 930 466.5 L 931 467.5 L 931 479.5 L 932 480.5 L 932 482.5 L 932 492.5 L 931 493.5 L 932 494.5 L 932 519.5 L 933 524.5 L 931 533.5 L 930 555.5 L 928 561.5 L 928 563.5 L 929 565.5 Q 925.7 570.2 927 579.5 L 925 582.5 L 924 591.5 L 919 609.5 L 920 611.5 L 917 617.5 L 917 619.5 L 914 631 L 912 631.5 L 914 632.5 L 911 637.5 L 911 642.5 L 907 649.5 Q 909.5 651 906 652.5 L 900 668.5 L 900 671.5 L 893 684.5 Q 895.5 686 892 687.5 L 887 696.5 L 886 701.5 L 880 710.5 L 879 715 Q 876.3 713.9 877 716.5 L 873 722.5 L 873 725 L 871 725.5 L 871.5 727 Q 869.3 726.3 870 728.5 L 862 739.5 Q 864.5 741 861 742.5 Q 861.8 744.8 859.5 744 L 858 748 L 855 749.5 L 855.5 751 L 853 752.5 L 845.5 764 L 844 764.5 Q 846.7 766.3 842.5 768 L 839 770.5 Q 839.5 774.5 836.5 775 L 834 776.5 L 834 778.5 L 828.5 784 L 827 784.5 Q 829.3 785.8 826.5 787 L 824 788.5 L 822.5 791 L 821 791.5 L 822 792.5 L 817.5 797 L 816 796.5 Q 817.1 799.8 814.5 799 L 812 803 Q 809.3 801.9 810 804.5 Q 804.9 812.4 796 816.5 L 796.5 818 L 795.5 817 L 792 820.5 L 790.5 823 Q 786.5 822.5 786 825.5 L 782.5 830 L 781 829.5 L 779 832.5 Q 777.8 835.8 774 835 L 771.5 839 Q 769.7 836.3 768 840.5 L 767.5 842 L 766 841.5 L 764.5 844 L 758 847.5 L 758.5 849 L 757 848.5 L 755.5 851 L 754 850.5 L 752.5 853 L 749.5 855 Q 748 852.5 746.5 856 L 742 858 Q 743.1 860.7 740.5 860 L 730.5 866 L 730.5 864 Q 727.9 863.2 729 866.5 L 723 870 L 722.5 872 L 720 871 L 718.5 874 Q 715.2 872.9 716 875.5 Q 713.7 873.7 711.5 878 Q 706.4 878.4 704.5 882 L 704 880 L 702 880.5 L 702.5 882 L 689.5 889 L 688 888.5 Q 688.8 890.8 686.5 890 L 684 890.5 L 683.5 892 L 682 891.5 L 681.5 893 L 680.5 890 L 679.5 894 L 678 893.5 Q 678.9 896.9 673.5 895 L 671.5 897 L 664.5 899 L 663.5 897 L 663 900 Q 658.4 899.4 656.5 903 L 654.5 903 L 650.5 905 L 648.5 905 Q 643.3 904.8 641.5 908 L 640.5 907 L 632.5 911 L 628.5 912 L 626.5 912 L 619.5 913 L 613.5 916 L 611.5 915 L 609.5 916 L 608.5 913 L 605.5 918 L 594.5 920 L 592.5 919 Q 591.3 921.3 586.5 920 L 583.5 922 L 581.5 921 Q 580.2 923.3 575.5 922 L 574 921.5 Q 574.9 924.5 570.5 923 L 569 923.5 L 568.5 921 L 568 923 L 561.5 925 L 557.5 924 L 549.5 926 L 545.5 925 L 534.5 927 Q 533.2 924.8 528.5 926 L 527.5 927 L 512.5 928 L 511.5 927 L 496 927 L 495.5 925 L 484.5 927 L 480.5 925 L 477.5 926 L 474.5 925 L 471.5 926 L 466.5 924 L 464.5 925 L 458.5 922 L 458 924 L 453.5 924 L 449.5 922 L 447.5 923 Q 446 919.5 444.5 922 L 441 922 Q 442.3 919 438.5 920 L 436.5 921 L 433.5 919 Q 428.8 920.2 427.5 918 L 425.5 919 L 422.5 917 L 420.5 918 L 417.5 916 L 416 916.5 Q 416.8 913.9 413.5 915 L 412 915.5 Q 412.8 912.9 409.5 914 L 407 915 Q 405.8 912 409.5 913 L 409.5 912 L 406 912 Q 407.1 914.7 404.5 914 L 398.5 911 L 397.5 912 L 395.5 910 L 391.5 910 L 385.5 907 L 384 907.5 Q 384.8 905.3 382.5 906 L 380 907 Q 381.1 904.3 378.5 905 L 377 905.5 L 376.5 904 L 375 904.5 L 374.5 903 L 372.5 904 L 368.5 902 Q 364.8 903.3 366 899.5 L 365 899.5 Q 365.7 902.1 363 901 L 362.5 899 L 361.5 900 Q 359.8 896.9 358 898.5 L 357.5 897 Q 356 899.5 354.5 896 L 352.5 895 L 351 895.5 Q 351.8 892.9 348.5 894 L 342.5 891 L 341 891.5 Q 342.5 887.1 339.5 888 L 340 889.5 L 339.5 891 L 338.5 889 Q 337 891.5 335.5 888 L 329.5 885 L 328 885.5 Q 328.8 883.3 326.5 884 L 323.5 882 L 322 882.5 L 321.5 881 L 320 881.5 Q 320.8 879.3 318.5 880 L 316 879.5 L 315.5 878 L 314 878.5 L 313.5 877 L 312 877.5 Q 312.8 874.9 309.5 876 L 307.5 873 L 309 872.5 L 306 872 L 305.5 874 L 305 872 L 293 866.5 Q 293.8 864.3 291.5 865 L 287.5 862 Q 286.2 864.3 285 861.5 L 284.5 860 Q 283.2 862.3 282 859.5 Q 282.8 857.3 280.5 858 L 278.5 855 Q 277 857.5 275.5 854 Q 272.2 855.1 273 852.5 L 271 852.5 L 271.5 851 L 264.5 846 Q 263.3 848.3 262 845.5 L 261.5 844 Q 259.8 846.7 258 842.5 L 256.5 840 Q 253.2 841.1 254 838.5 L 250 837 L 246.5 832 L 243 831 L 240.5 827 L 231 819.5 Q 231.8 817.3 229.5 818 L 221 811 L 221 809 Q 218.3 810.1 219 807.5 L 211 801.5 Q 213.3 800.3 210.5 799 Q 208.3 799.8 209 797.5 L 197 786.5 L 198 785.5 L 194.5 782 L 191 779.5 Q 193.8 777.8 189.5 776 L 185 772.5 L 183 767 L 180 766.5 Q 182.2 765.3 179.5 764 L 177 762.5 L 178 761.5 L 173 756.5 L 171 752 Q 168 753.3 169 749.5 L 164 742 L 162 742 L 162 739 Q 159.3 740.1 160 737.5 L 155 728 Q 152 729.3 153 725.5 L 152 723 Q 149 724.3 150 720.5 L 147.5 717 Q 145.3 717.8 146 715.5 L 145.5 713 L 144 712.5 L 144.5 711 Q 141.9 711.8 143 708.5 Q 140.3 707.4 141 704 L 139 703.5 L 139.5 702 L 138 701.5 L 138.5 700 Q 136.3 700.8 137 698.5 L 137 696.5 L 134 693.5 L 134.5 692 Q 132.3 692.8 133 690.5 L 132.5 689 L 134 688.5 L 131 687.5 L 131.5 686 L 130 685.5 L 130.5 684 L 129 683.5 L 129.5 682 L 128 681.5 L 129 680.5 Q 125.9 678.8 127.5 677 L 126 676.5 L 126.5 675 L 125 674.5 L 125 672.5 L 122 666.5 Q 124.5 665 121 663.5 L 120 661.5 L 120 659.5 L 118 652.5 L 116 650.5 Q 118.5 649 115 647.5 L 114 644.5 L 114.5 643 L 113 642.5 L 113 640.5 L 112 638.5 L 113 637.5 L 111 635.5 L 112 634.5 L 110 630.5 L 108 625.5 L 110 624.5 L 110.5 627 L 112 624.5 L 109.5 620 L 109 623 L 107 622.5 L 108 620.5 Q 104.5 619 107 617.5 L 105 614.5 L 106 612 Q 103 613.3 104 609.5 L 104 607.5 L 103 605.5 L 104 603.5 L 101 597.5 L 102 595.5 L 100 592.5 L 101 589.5 L 98 579.5 L 99 577.5 L 97 573.5 L 98 570.5 L 96 562.5 L 96 553.5 L 94 547.5 L 96 544.5 L 94 540.5 L 94 524.5 L 93 521.5 L 93 519.5 L 93 505.5 L 94 504.5 L 93 499.5 L 94 496.5 L 94 494.5 L 93 484.5 Q 95.8 481.8 95 475.5 L 94 470.5 L 96 463.5 L 95 461.5 L 97 455.5 L 96 451.5 L 98 448.5 L 97 445.5 L 99 440.5 L 99 438.5 L 100 435.5 L 99 433.5 L 101 429.5 L 101 427.5 L 103 420.5 L 102 418.5 L 104 416.5 L 105 410.5 L 104 408 Q 107.3 409.3 106 404.5 L 107 402.5 L 106.5 401 Q 108.8 401.8 108 399.5 L 107 397 Q 110 398.3 109 394.5 L 108.5 393 Q 111.1 393.8 110 390.5 L 111 388.5 L 110 387.5 L 112 385.5 L 112 381.5 L 112 380 L 114 379.5 L 114 374 L 115.5 374 L 115 372.5 Q 114.3 370.3 116.5 371 L 117 368.5 L 119 364.5 Q 116.5 363 120 361.5 L 122 356.5 Q 119.5 355 123 353.5 Q 121.1 348.1 124.5 349 L 125 346.5 Q 124.3 343.9 127 345 L 127 342.5 L 129 338.5 L 128.5 337 L 130 336.5 L 129.5 335 Q 131.8 335.8 131 333.5 L 131.5 331 L 133 330.5 L 132.5 329 Q 134.8 329.8 134 327.5 L 137 321.5 L 136.5 320 L 139 318.5 L 138.5 317 L 140 316.5 L 139.5 315 Q 141.8 315.8 141 313.5 L 144 306 L 146 305.5 L 145.5 304 Q 148.1 304.8 147 301.5 L 149 297 Q 151.7 298.1 151 295.5 L 153 291.5 L 154.5 289 L 156 288.5 Q 153.8 287.3 156.5 286 L 158 285.5 Q 155.5 284 159 282.5 Q 158.3 279.9 161 281 L 161 278 L 162.5 278 L 163.5 275 L 165 274.5 Q 162.8 273.3 165.5 272 Q 167.8 272.8 167 270.5 L 168 268 L 170 267.5 Q 167.8 266.3 170.5 265 L 173 263.5 Q 171.9 260.2 174.5 261 L 177.5 255 L 179 255.5 Q 177.9 252.2 180.5 253 Q 178.7 250.5 183.5 248 L 187 245.5 Q 186.5 241.5 189.5 241 L 192 239.5 Q 191.5 234.5 195.5 234 L 198 232.5 L 199.5 230 Q 202.1 230.8 201 227.5 L 206 224 L 212.5 216 Q 214.8 216.8 214 214.5 L 220.5 208 L 222 208.5 L 223.5 205 Q 225.2 207.7 227 203.5 L 229 200.5 L 234 197.5 Q 231.3 195.8 235.5 194 L 237 194.5 L 238.5 192 L 245 188.5 Q 242.7 187.3 245.5 186 Q 247 188.5 248.5 185 L 251 183.5 L 253 180.5 L 256 179.5 L 258.5 176 L 260 176.5 Q 259.2 173.9 262.5 175 L 265 173.5 Q 262.8 172.3 265.5 171 L 267 171.5 L 269.5 168 L 271.5 167 Q 272.8 169.3 274 166.5 L 274.5 165 Q 275.8 167.3 277 164.5 L 278.5 162 L 280.5 161 L 282 161.5 L 282.5 160 Q 283.8 162.3 285 159.5 L 285.5 158 L 287.5 158 L 289 157.5 L 288.5 156 L 290 156.5 L 291.5 154 L 295.5 152 L 297 152.5 L 298.5 150 L 300.5 151 L 300.5 149 L 302 149.5 L 303.5 147 Q 307.9 148.5 307 145.5 L 309 145.5 L 309.5 144 L 311 144.5 L 311.5 143 L 313 143.5 L 313.5 142 L 314.5 143 L 317.5 140 L 321.5 138 L 323 138.5 L 323.5 137 L 325.5 137 Q 327.8 137.8 327 135.5 L 329 135.5 L 329.5 134 Q 331 136.5 332.5 133 L 336.5 131 L 338 131.5 L 338.5 130 L 340 130.5 Q 339.3 128.3 341.5 129 L 343.5 128 L 345 128.5 L 345.5 127 L 346.5 128 Q 348.3 124.9 350 126.5 L 350.5 125 L 352 125.5 L 352.5 124 L 355 125 L 355.5 123 L 356.5 124 L 359 122.5 L 359.5 124 L 360.5 121 L 362 121.5 Q 361.3 119.3 363.5 120 Q 365 122.5 366.5 119 L 369.5 118 L 370.5 119 L 372.5 117 L 373.5 118 L 375.5 116 L 376.5 117 L 378.5 115 L 379.5 116 L 381.5 114 L 382.5 115 L 390.5 111 L 392.5 112 L 397 111 Q 395.9 108.3 398.5 109 L 400.5 110 L 400.5 108 L 404.5 110 L 405 108.5 L 404.5 107 L 407.5 108 L 408 106 L 411.5 107 L 412 105 L 416.5 106 Q 418 102.5 419.5 105 Q 423.3 106 422 103 L 425.5 103 L 427 103.5 Q 426.2 100.9 429.5 102 L 433 103 Q 431.7 99.7 436.5 101 L 440 101.5 Q 439.2 98.9 442.5 100 L 445 101 Q 443.7 97.7 448.5 99 L 450.5 100 L 453.5 98 L 464.5 97 L 466.5 98 L 473.5 96 Q 474.8 98.3 479.5 97 L 484.5 95 Z M 462 99 L 462 100 L 464 100 L 462 99 Z M 577 101 Q 577 104 579 102 L 581 103 Q 582 105 583 103 L 577 101 Z M 587 103 L 587 104 L 592 104 L 587 103 Z M 617 109 Q 617 112 621 112 L 622 112 L 617 109 Z M 377 117 L 377 119 L 379 118 L 377 117 Z M 643 117 L 643 118 L 645 118 L 643 117 Z M 376 118 L 374 120 L 376 120 L 376 118 Z M 650 119 L 650 120 L 653 120 L 650 119 Z M 665 125 L 666 127 L 668 126 L 665 125 Z M 351 127 L 351 128 L 353 128 L 351 127 Z M 291 157 L 291 158 L 293 158 L 291 157 Z M 610 192 L 610 193 L 612 193 L 610 192 Z M 614 192 L 610 195 L 596 200 L 594 200 Q 590 199 589 202 L 591 202 L 592 202 L 554 224 L 530 241 Q 527 240 528 243 L 524 245 L 508 259 L 506 259 L 504 259 L 505 262 L 502 264 Q 503 266 501 265 L 492 275 L 489 276 L 476 293 L 472 295 L 470 301 L 466 304 L 466 306 Q 447 332 434 363 L 433 362 L 432 362 L 433 365 L 430 372 L 427 373 L 428 376 L 418 402 L 417 402 L 418 399 L 416 398 L 417 404 L 410 422 Q 406 423 409 425 L 404 433 L 401 432 L 402 435 L 395 441 L 379 451 L 377 451 L 376 454 L 362 464 L 345 487 L 343 488 L 343 490 L 338 498 Q 339 500 337 499 L 337 501 L 331 514 L 330 512 L 328 516 L 330 516 L 325 530 L 322 531 L 323 534 L 323 533 L 324 533 L 322 540 L 321 538 L 320 538 L 321 542 L 319 552 L 320 557 L 320 567 L 322 567 L 321 566 L 322 564 L 322 566 Q 325 571 332 573 L 331 573 L 331 574 L 334 573 Q 339 572 341 576 L 343 575 L 342 574 L 354 572 L 377 565 L 380 566 L 376 566 L 377 568 L 382 567 L 381 565 L 401 559 L 400 561 Q 402 566 399 565 L 399 569 L 397 578 L 399 578 Q 399 587 404 593 Q 410 601 420 604 L 421 606 L 418 605 L 416 605 Q 415 609 418 608 L 419 606 L 419 608 L 422 608 L 422 606 L 445 614 L 445 616 L 447 615 L 454 618 Q 457 617 456 620 L 458 619 L 458 621 L 460 620 L 464 622 L 462 623 L 465 624 L 467 624 L 466 623 L 466 622 L 494 632 L 508 632 L 522 625 L 537 609 L 539 615 Q 540 617 537 616 L 537 619 L 540 617 L 539 619 L 541 619 L 546 631 L 544 631 L 546 634 L 547 632 L 558 650 Q 560 649 559 652 Q 563 658 572 660 L 578 660 L 585 656 Q 584 653 587 654 L 597 641 L 612 609 L 619 586 L 622 569 L 622 562 L 623 561 L 623 545 L 622 544 L 622 535 L 621 529 L 623 529 L 620 528 L 616 507 L 619 494 L 620 494 Q 619 497 622 496 L 622 492 Q 619 493 620 491 L 623 490 L 623 487 L 622 489 L 621 489 L 623 485 L 623 487 L 624 487 L 623 484 L 644 430 L 653 401 L 654 394 Q 657 392 655 391 L 659 374 Q 657 366 662 368 L 662 365 L 661 367 L 660 367 L 661 361 L 662 363 L 663 360 L 661 360 L 661 353 L 663 352 L 662 351 Q 660 340 664 335 L 663 333 L 663 319 L 662 318 L 663 316 L 662 315 L 661 294 L 660 293 L 660 287 L 656 264 L 656 262 L 645 224 L 640 211 L 637 207 L 640 206 L 639 204 L 636 205 L 634 201 L 625 193 L 615 193 L 614 192 Z M 601 195 L 601 196 L 603 196 L 601 195 Z M 585 203 Q 585 207 587 204 L 585 203 Z M 569 209 L 568 212 L 569 212 L 569 209 Z M 647 223 L 646 226 L 647 226 L 647 223 Z M 648 226 L 647 229 L 648 229 L 648 226 Z M 653 243 L 652 246 L 653 246 L 653 243 Z M 834 245 L 833 247 Q 835 250 836 247 L 834 245 Z M 654 246 L 653 250 L 654 250 L 654 246 Z M 841 250 L 841 253 L 842 253 Q 843 249 841 250 Z M 160 284 L 158 287 L 160 287 L 160 284 Z M 866 284 L 864 288 L 867 288 L 866 284 Z M 664 305 L 663 311 L 664 311 L 664 305 Z M 880 312 L 881 316 L 882 314 Q 883 311 880 312 Z M 350 320 L 350 321 L 352 321 L 350 320 Z M 349 323 L 349 324 L 355 324 L 349 323 Z M 348 325 L 341 330 Q 342 332 340 331 L 338 331 L 339 333 L 337 336 Q 334 335 335 338 L 333 339 L 326 348 L 323 350 Q 320 355 317 354 L 318 356 L 308 367 Q 308 370 304 369 L 304 371 L 300 376 L 292 384 L 290 384 L 290 386 L 271 407 Q 272 409 270 408 Q 267 409 269 411 L 266 413 L 261 420 L 256 424 L 236 447 L 233 448 L 228 455 Q 229 457 226 456 L 224 461 L 221 463 L 211 474 L 211 473 L 209 472 L 208 475 L 209 478 L 208 477 L 204 482 Q 205 484 201 483 L 201 480 L 200 484 L 202 485 L 196 499 Q 197 516 206 525 L 211 528 L 212 532 L 259 586 L 267 592 L 268 595 Q 267 598 270 597 L 274 603 L 282 609 Q 283 614 287 617 L 289 620 L 290 623 L 289 622 L 288 624 L 293 623 L 302 635 Q 306 642 316 645 L 323 644 L 328 638 L 327 629 L 293 591 Q 294 588 292 589 L 273 568 Q 274 565 271 566 L 265 559 Q 266 556 263 557 L 258 550 L 227 516 Q 228 512 226 513 L 219 506 L 219 500 L 224 496 L 223 495 L 241 474 L 245 471 Q 246 473 247 471 L 245 470 L 253 461 Q 252 458 255 459 L 295 415 Q 294 412 297 413 L 305 403 L 309 399 L 312 400 L 312 398 L 310 398 L 348 355 L 352 352 L 353 350 L 360 344 L 362 339 L 361 330 Q 358 324 348 325 Z M 892 332 L 891 336 L 893 335 L 892 332 Z M 363 336 L 363 338 L 365 337 L 363 336 Z M 331 337 Q 331 341 333 338 L 331 337 Z M 664 344 L 663 348 L 664 348 L 664 344 Z M 314 355 L 313 358 L 315 358 Q 316 354 314 355 Z M 906 365 L 905 368 L 906 368 L 906 365 Z M 720 370 L 719 372 L 717 373 Q 712 371 713 375 L 712 374 Q 706 376 707 385 L 706 384 L 704 387 L 706 386 L 705 388 Q 707 392 709 389 L 723 406 Q 722 408 725 407 L 725 409 L 727 409 L 748 435 Q 747 439 751 437 L 755 444 L 773 464 L 775 467 L 779 469 L 780 473 L 800 496 Q 799 498 803 497 Q 804 500 802 499 L 800 499 L 801 502 L 805 505 L 804 508 L 780 535 L 777 536 L 777 538 L 744 575 L 740 577 L 740 579 L 732 588 Q 733 590 730 589 L 730 591 L 729 591 L 727 594 L 724 595 L 707 616 Q 708 618 706 617 L 701 623 L 698 624 L 691 633 Q 692 635 689 634 L 683 643 L 678 648 L 679 649 L 678 649 L 678 651 L 676 655 Q 679 656 677 658 L 679 661 L 687 665 Q 694 664 698 659 Q 697 656 700 657 L 704 653 L 704 650 L 711 645 Q 710 642 713 643 L 716 639 Q 720 640 719 638 L 718 638 L 719 636 Q 718 633 721 634 L 729 625 Q 728 622 731 623 L 731 622 L 750 601 Q 749 598 752 599 L 754 596 Q 753 593 756 594 L 809 535 L 814 527 L 817 526 Q 816 523 819 524 Q 826 517 829 505 Q 827 490 818 483 L 820 482 L 817 480 L 770 427 L 772 426 L 764 421 L 763 418 L 730 379 L 724 373 L 720 373 L 723 372 L 720 370 Z M 713 371 L 713 372 L 715 372 L 713 371 Z M 120 373 L 119 376 L 120 376 L 120 373 Z M 908 374 L 909 376 Q 910 373 908 374 Z M 426 376 L 425 378 L 427 377 L 426 376 Z M 319 389 L 317 392 L 319 391 L 319 389 Z M 709 390 Q 707 393 710 392 L 709 390 Z M 914 390 L 913 393 L 914 393 L 914 390 Z M 281 392 L 279 394 Q 281 397 283 393 L 281 392 Z M 916 396 L 915 399 L 917 400 L 916 396 Z M 655 398 L 654 401 L 655 401 L 655 398 Z M 713 398 Q 711 401 714 400 L 713 398 Z M 273 400 L 272 403 L 273 404 L 274 401 L 276 401 L 273 400 Z M 653 405 L 652 408 L 654 408 L 653 405 Z M 921 414 L 920 418 L 921 418 L 921 414 Z M 410 416 L 408 420 L 410 420 L 410 416 Z M 767 420 L 768 422 Q 769 419 767 420 Z M 645 430 Q 643 433 646 432 L 645 430 Z M 640 444 L 639 447 L 640 447 L 640 444 Z M 762 452 Q 760 455 763 454 L 762 452 Z M 929 460 L 928 465 L 929 465 L 929 460 Z M 770 461 Q 768 464 771 463 L 770 461 Z M 805 464 Q 805 468 807 465 L 805 464 Z M 777 470 Q 775 473 778 472 L 777 470 Z M 930 476 L 929 479 L 930 479 L 930 476 Z M 790 484 Q 787 489 791 488 L 790 484 Z M 930 485 L 930 488 L 931 488 Q 932 484 930 485 Z M 232 486 L 230 488 L 232 488 L 232 486 Z M 793 488 L 792 491 L 796 492 L 793 488 Z M 221 499 L 220 503 L 222 503 L 221 499 Z M 803 505 L 801 509 L 803 508 L 803 505 Z M 196 508 L 196 512 L 197 512 L 196 508 Z M 794 516 L 792 518 L 794 518 L 794 516 Z M 201 518 L 200 522 L 202 521 L 201 518 Z M 235 520 Q 233 523 236 522 L 235 520 Z M 209 529 L 208 532 L 209 532 L 209 529 Z M 930 531 L 929 534 L 930 534 L 930 531 Z M 623 532 L 622 534 L 624 535 L 623 532 Z M 624 537 L 623 540 L 624 540 L 624 537 Z M 217 539 L 219 542 L 220 542 L 217 539 Z M 218 542 L 216 544 L 218 544 L 218 542 Z M 221 542 Q 219 545 222 544 L 221 542 Z M 234 557 L 232 560 L 235 560 L 234 557 Z M 744 568 L 745 572 Q 747 571 745 570 L 747 569 L 744 568 Z M 278 569 L 277 571 L 279 572 L 278 569 Z M 350 573 L 346 575 L 350 575 L 350 573 Z M 920 584 L 920 586 L 922 585 L 920 584 Z M 102 587 Q 101 590 104 589 Q 105 586 102 587 Z M 401 589 L 401 592 Q 404 591 401 589 Z M 104 590 L 102 593 L 104 592 L 104 590 Z M 265 595 L 266 596 L 267 597 Q 268 594 265 595 Z M 264 597 Q 263 600 266 599 Q 267 596 264 597 Z M 275 604 L 273 606 L 275 606 L 275 604 Z M 433 611 L 432 614 L 433 614 L 433 611 Z M 440 614 L 440 615 L 442 615 L 440 614 Z M 450 618 L 450 620 L 452 619 L 450 618 Z M 460 621 Q 460 625 462 622 L 460 621 Z M 527 621 L 525 624 L 527 623 L 527 621 Z M 418 624 L 416 627 L 414 628 L 413 625 L 411 626 L 412 629 L 403 633 L 400 632 L 400 634 L 389 642 Q 377 652 371 668 L 368 667 L 370 670 L 370 671 L 369 670 L 368 670 L 369 673 L 364 689 Q 366 694 362 693 L 362 694 Q 365 693 363 699 L 360 698 Q 359 701 362 700 L 362 701 L 360 702 L 360 712 L 360 714 Q 363 715 361 721 L 362 722 L 360 726 L 361 728 L 362 726 L 363 749 L 365 756 L 365 759 L 363 751 L 362 751 Q 361 755 363 757 Q 362 762 366 760 Q 367 772 372 780 L 377 783 L 381 784 Q 385 785 387 783 L 390 784 L 390 782 L 421 759 L 437 743 L 438 744 Q 441 745 440 742 L 438 742 L 440 739 L 447 733 L 446 732 Q 463 714 470 687 Q 469 680 472 681 L 471 680 L 471 664 L 472 663 L 470 662 Q 469 648 462 641 L 464 640 L 460 637 L 457 634 L 456 634 Q 449 628 438 626 L 440 625 L 440 624 Q 434 623 433 625 L 429 624 L 427 624 Q 423 623 424 626 L 420 627 L 417 627 L 423 625 L 420 624 L 418 624 Z M 443 625 L 443 626 L 445 626 L 443 625 Z M 474 627 L 474 629 L 477 629 Q 478 626 474 627 Z M 481 628 L 480 630 Q 483 629 482 632 L 486 631 L 481 628 Z M 479 630 L 477 632 L 479 632 L 479 630 Z M 547 634 L 545 636 L 547 636 L 547 634 Z M 549 638 Q 547 641 550 640 L 549 638 Z M 681 640 L 681 642 L 683 641 L 681 640 Z M 316 646 L 316 647 L 320 647 L 316 646 Z M 470 649 Q 468 652 471 651 L 470 649 Z M 469 694 L 468 696 L 470 697 L 469 694 Z M 881 705 L 880 708 L 881 708 L 881 705 Z M 464 707 L 463 710 L 464 710 L 464 707 Z M 361 729 L 360 738 L 361 738 L 361 729 Z M 446 734 L 447 736 Q 448 733 446 734 Z M 362 740 L 361 743 L 362 743 L 362 740 Z M 362 744 L 361 749 L 362 749 L 362 744 Z M 366 765 L 365 768 L 366 768 L 366 765 Z M 374 782 L 372 784 L 374 784 L 374 782 Z M 818 792 L 817 794 L 819 793 L 818 792 Z M 253 835 L 254 837 Q 255 834 253 835 Z M 294 864 L 295 866 L 296 866 L 294 864 Z M 617 912 L 617 913 L 619 913 L 617 912 Z M 452 920 Q 452 924 454 921 L 452 920 Z M 577 920 L 577 921 L 579 921 L 577 920 Z M 542 924 L 542 925 L 544 925 L 542 924 Z " /><path fill="rgb(0,0,0)" stroke="rgb(0,0,0)" stroke-width="1" opacity="0" d="M 613.5 216 Q 617.7 214.7 616 219.5 L 618.5 223 L 619 221.5 L 617 216.5 L 618 216.5 L 626 238.5 L 624 238.5 L 625 242.5 L 624.5 244 L 626 244.5 Q 623.8 245.8 626.5 247 L 627.5 244 L 633 266.5 L 632 271.5 L 633 271.5 L 633.5 268 L 638 290.5 L 640 319.5 L 640 321.5 L 639 355.5 L 634.5 379 L 633.5 376 L 633 380.5 L 634 383.5 Q 623 430.5 604.5 470 L 603.5 468 L 602 469.5 L 603.5 472 L 601.5 472 Q 599.3 471.3 600 473.5 L 601.5 473 Q 603.8 472.3 603 474.5 L 602 477 L 600 477.5 L 600 479.5 L 595 493.5 L 593.5 503 L 592.5 497 L 592 503.5 L 594 507.5 L 592 507.5 L 592.5 512 L 593.5 509 L 596 521.5 L 595 526.5 L 597 527.5 L 596 523.5 L 597 523.5 L 600 537.5 L 600 565.5 L 599 568 Q 596.3 566.9 597 569.5 L 599 569.5 L 595 589.5 L 585.5 614 L 584.5 612 L 584 614.5 L 584 616.5 L 582 622.5 L 573.5 636 L 573 634 L 571 633.5 Q 573.5 632 570 630.5 Q 559.3 611.7 552 589.5 L 546.5 584 L 540.5 581 L 532.5 583 L 522 592.5 L 513.5 603 Q 511.3 602.3 512 604.5 L 505.5 610 L 505.5 608 Q 502.9 607.3 504 610 L 501.5 610 L 501.5 609 L 503 608.5 L 500.5 608 L 496.5 610 L 455 594.5 Q 457.3 593.3 454.5 592 L 449.5 593 L 429.5 585 L 428 585.5 Q 428.8 583.3 426.5 584 L 424 583 L 421 577.5 L 423 577.5 L 423 576 L 421 575.5 L 421 566.5 Q 424.3 560.8 423 550.5 Q 420.9 542.2 414.5 538 Q 410.9 535.1 403.5 536 L 374.5 543 L 356.5 549 L 344.5 551 L 343 550.5 L 341.5 553 L 342 551.5 L 345 538.5 L 348.5 530 L 349.5 533 L 350 529.5 L 349 527.5 L 350 527.5 L 350.5 529 Q 352.8 528.3 352 524.5 L 352 522.5 Q 356.5 507 365.5 496 Q 368.8 497.1 368 494.5 L 366 494.5 L 382.5 475 L 388.5 471 L 390 471.5 Q 388.9 468.2 391.5 469 L 417 452 L 418.5 449 Q 420.8 449.8 420 447.5 L 428 437.5 L 449 382.5 L 464 350.5 L 470.5 340 L 471 341.5 L 469.5 344 Q 474.1 345.4 472 339.5 L 472 337.5 L 482 320.5 L 500 297 Q 502.7 298.1 502 295.5 Q 522.6 272.1 548.5 254 L 548.5 256 L 550.5 255 L 552 255.5 Q 552.8 253.3 550.5 254 L 552.5 251 L 585.5 230 L 599.5 223 L 601.5 224 L 601.5 222 L 613.5 216 Z M 604 222 L 604 223 L 606 223 L 604 222 Z M 590 229 L 587 231 L 590 231 L 590 229 Z M 628 248 L 627 251 L 628 251 L 628 248 Z M 628 253 L 628 256 L 629 256 Q 630 252 628 253 Z M 635 279 L 633 281 L 635 282 L 635 279 Z M 636 285 L 635 288 L 636 288 L 636 285 Z M 637 294 L 636 298 L 637 298 L 637 294 Z M 486 318 L 484 320 L 486 320 L 486 318 Z M 540 320 L 541 322 L 526 328 L 524 328 Q 519 326 520 331 L 523 330 L 519 333 L 512 341 L 508 344 Q 505 345 507 347 Q 499 355 498 370 L 497 366 L 496 366 L 496 376 L 497 377 L 497 387 L 496 388 Q 495 394 498 393 L 501 403 L 506 411 L 505 413 Q 506 415 508 413 L 515 422 L 514 421 L 513 423 L 520 424 L 532 430 L 532 432 L 535 431 L 538 432 L 553 432 L 564 430 L 579 422 L 581 422 Q 580 418 583 419 Q 593 410 599 398 L 604 383 L 605 375 L 606 380 L 606 377 Q 609 375 605 374 L 606 369 L 605 369 L 602 354 L 598 346 L 600 346 L 600 345 Q 599 342 598 344 L 593 338 Q 585 327 571 322 Q 567 323 568 321 L 567 321 L 564 320 L 546 320 L 545 321 L 540 320 Z M 480 326 L 479 329 L 480 329 L 480 326 Z M 478 330 L 476 332 L 478 332 L 478 330 Z M 596 339 L 597 341 Q 598 338 596 339 Z M 498 360 L 499 362 Q 500 359 498 360 Z M 498 362 L 497 365 L 498 365 L 498 362 Z M 635 369 L 634 374 L 635 374 L 635 369 Z M 606 381 L 604 384 L 606 384 L 606 381 Z M 633 381 L 632 384 L 633 384 L 633 381 Z M 498 395 L 497 399 L 499 400 L 498 395 Z M 626 400 L 626 402 L 626 404 L 627 406 L 628 404 Q 629 399 626 400 Z M 596 405 L 594 407 L 596 407 L 596 405 Z M 625 409 L 624 413 L 625 413 L 625 409 Z M 439 414 L 437 416 L 439 416 L 439 414 Z M 437 417 L 436 420 L 437 420 L 437 417 Z M 619 425 L 619 427 L 621 426 L 619 425 Z M 619 429 L 618 432 L 619 432 L 619 429 Z M 529 430 Q 527 433 530 432 L 529 430 Z M 428 438 L 428 440 L 431 440 L 428 438 Z M 606 464 L 604 467 L 606 466 L 606 464 Z M 382 477 L 380 479 L 383 479 L 382 477 Z M 375 485 L 372 488 L 375 488 Q 378 487 375 485 Z M 359 510 L 357 512 L 359 512 L 359 510 Z M 594 515 L 593 519 L 594 519 L 594 515 Z M 595 519 L 594 522 L 595 522 L 595 519 Z M 349 533 L 348 536 L 349 536 L 349 533 Z M 384 536 L 385 538 L 387 537 L 384 536 Z M 392 536 L 389 538 L 392 538 L 392 536 Z M 414 536 L 414 537 L 416 537 L 414 536 Z M 358 546 L 358 547 L 360 547 L 358 546 Z M 423 566 L 422 569 L 423 569 L 423 566 Z M 542 580 L 542 581 L 544 581 L 542 580 Z M 438 587 L 438 588 L 440 588 L 438 587 Z M 462 595 L 462 596 L 464 596 L 462 595 Z M 565 617 L 565 619 L 567 618 L 565 617 Z M 575 627 L 575 630 L 576 630 Q 577 626 575 627 Z M 574 630 L 572 632 L 575 633 L 574 630 Z " /><path fill="rgb(0,0,0)" stroke="rgb(0,0,0)" stroke-width="1" opacity="0" d="M 626.5 240 L 627 242.5 L 626 242.5 L 626.5 240 Z " /><path fill="rgb(0,0,0)" stroke="rgb(0,0,0)" stroke-width="1" opacity="0" d="M 547.5 342 Q 553.5 340.8 552.5 344 L 558.5 344 L 558.5 343 L 553 342.5 L 560.5 342 L 560.5 344 L 564.5 343 L 576 351.5 L 579 357.5 L 578 357.5 L 577.5 356 Q 574.3 357.8 578 359.5 L 578.5 361 L 579.5 359 L 581 365 Q 577.7 363.9 579 368 Q 581.7 369.1 581 366.5 L 582 366.5 L 581 368.5 Q 583.3 369.8 582 374.5 L 582 376.5 L 578 391 Q 575 389.8 576 393.5 L 570.5 400 L 569.5 398 L 568 400.5 Q 570.3 401.7 567.5 403 L 559.5 408 L 552.5 409 L 551.5 408 L 541.5 408 L 541.5 409 L 544 409.5 L 541.5 410 Q 532.5 408.5 528 402.5 Q 530.3 401.2 527.5 400 Q 525.7 402.8 524 398.5 L 520 390.5 L 519 376.5 L 524 360 L 528 358.5 L 527.5 357 L 525 358.5 L 531.5 351 L 533.5 352 L 536 350.5 L 533 349.5 Q 538.6 344.1 547.5 342 Z M 549 343 L 549 344 L 551 344 L 549 343 Z M 570 347 L 568 350 L 571 350 L 570 347 Z M 525 363 L 523 366 L 525 365 L 525 363 Z M 581 372 L 580 375 L 581 375 L 581 372 Z M 578 376 L 576 378 L 578 378 L 578 376 Z M 563 403 L 561 405 L 563 405 L 563 403 Z " /><path fill="rgb(0,0,0)" stroke="rgb(0,0,0)" stroke-width="1" opacity="0" d="M 497.5 389 L 498 391.5 L 497 391.5 L 497.5 389 Z " /><path fill="rgb(0,0,0)" stroke="rgb(0,0,0)" stroke-width="1" opacity="0" d="M 425.5 647 L 433.5 647 L 443 651.5 L 441 652 L 440 655.5 L 444 653.5 L 443 656 L 445.5 655 L 447 657.5 L 446.5 659 Q 449.1 658.2 448 661.5 L 449 663.5 L 448 665.5 L 448 667.5 L 449 678.5 L 446 690.5 L 441.5 698 Q 438.9 697.2 440 700.5 L 440 702.5 L 427.5 720 Q 424.9 719.2 426 722.5 L 418 729.5 Q 418.8 727.3 416.5 728 L 417 731.5 L 415 733.5 L 413 736.5 L 410 738.5 L 409.5 737 L 407.5 740 L 409 740.5 L 391 755.5 Q 391.8 757.8 389.5 757 L 390 755.5 L 389.5 754 L 387.5 759 L 386 756.5 L 387 754.5 L 385 747.5 L 383 723.5 L 383 721.5 L 384 712.5 L 384 710.5 Q 384.3 679.8 399 663.5 L 398.5 662 L 409.5 653 L 417.5 649 L 425.5 647 Z M 417 651 L 417 652 L 419 652 L 417 651 Z M 398 667 L 396 669 L 398 670 L 398 667 Z M 390 684 L 388 688 L 390 687 L 390 684 Z " /><path fill="rgb(0,0,0)" stroke="rgb(0,0,0)" stroke-width="1" opacity="0" d="M 361.5 703 L 362 708.5 L 361 708.5 L 361.5 703 Z " /><path fill="rgb(0,0,0)" stroke="rgb(0,0,0)" stroke-width="1" opacity="0" d="M 444.5 925 Q 449.3 924.3 451 926.5 L 447.5 927 L 444.5 926 L 444.5 925 Z " /><path fill="rgb(119,211,237)" stroke="rgb(119,211,237)" stroke-width="1" opacity="0.8705882352941177" d="M 484.5 91 Q 487.1 90.3 486 93 L 490.5 93 L 491.5 92 L 534.5 92 L 535.5 93 L 546.5 93 L 547.5 94 L 556.5 94 L 567.5 96 L 577.5 96 L 585.5 98 L 585.5 96 L 589 96.5 L 588.5 98 L 591.5 97 L 591.5 98 L 590 98.5 L 593.5 100 L 603.5 101 L 605.5 100 L 605.5 102 L 629.5 107 L 632.5 109 L 647.5 113 L 649.5 112 L 649.5 114 L 662.5 118 L 662.5 117 L 659.5 115 L 658 115.5 Q 659.8 112.3 661.5 116 L 664 117.5 L 663.5 119 L 689.5 129 L 691.5 128 L 691.5 129 L 690 129.5 L 694 131 L 693 128.5 L 694.5 129 Q 696.8 128.3 696 130.5 Q 693.8 131.8 696.5 133 L 705.5 137 L 709.5 136 L 712 137.5 L 711 140 L 725.5 147 L 725.5 145 L 727.5 149 L 749.5 162 L 751 161.5 L 750.5 163 L 784 186 Q 782.9 188.7 785.5 188 L 791 192 Q 789.9 194.7 792.5 194 L 796.5 197 L 798 196.5 L 797 197.5 L 807.5 208 L 820 219.5 Q 819.3 221.8 821.5 221 L 824 221.5 L 823 222.5 L 827 226.5 L 839 242 Q 841.7 240.9 841 243.5 L 854.5 261 L 855.5 258 L 856 260.5 L 856 262.5 L 862.5 272 L 863.5 270 L 864 271.5 L 863 273.5 L 869.5 282 Q 870.8 279.8 872 282.5 L 871 285.5 L 873.5 289 L 875 288.5 L 874 290.5 L 876.5 294 L 877.5 292 L 878 293.5 L 877 295.5 L 884.5 308 L 885.5 306 L 886.5 308 L 888 307.5 L 888 309.5 L 887.5 311 L 885.5 308 L 885 309.5 L 894.5 328 L 895.5 326 L 896 327.5 L 895 330.5 L 900 341 L 903.5 340 L 902.5 342 L 901 342.5 L 918.5 388 L 919.5 386 L 920 389.5 L 920 393.5 L 924 412 L 926 411.5 L 925 408.5 L 926 408.5 L 927 411.5 L 925 415.5 L 928 423.5 L 927 425.5 L 931.5 448 L 932.5 445 Q 934.8 445.8 934 449.5 L 933 449.5 L 932.5 448 L 932 454.5 L 933 455.5 L 933 463 Q 937.1 461.3 936 465.5 L 935 465.5 Q 935.8 463.3 933.5 464 L 934 465.5 L 934.5 473 L 936 472.5 L 935 479.5 L 936 481.5 L 935 483.5 L 935 485.5 Q 933.5 491 936 492.5 L 936 517.5 L 935 519.5 L 936 521.5 L 935 524.5 L 936 543.5 L 935 543.5 L 934.5 540 L 932 565.5 L 930 571.5 L 930 577.5 L 928 583.5 L 926 598.5 L 926.5 600 L 925 599.5 L 919 625.5 L 919.5 627 L 918 626.5 L 917 632.5 L 918 634.5 L 916 634.5 L 917 639.5 L 916 639.5 L 915.5 637 L 911 649.5 L 911.5 651 L 910 650.5 L 909 656.5 L 895 689.5 L 896 691.5 L 895 691.5 L 894.5 690 L 886 706.5 L 888 707.5 L 884 709.5 L 870 734.5 L 872 734.5 L 871 737 L 868.5 736 L 868 737.5 L 869 739.5 L 868 739.5 L 867.5 738 L 855 756.5 L 856 758.5 L 855 758.5 L 854.5 757 L 847 766.5 L 847.5 768 Q 844.2 766.9 845 769.5 L 829 788.5 L 830.5 788 Q 832.8 787.3 832 789.5 L 830 789.5 L 828.5 792 L 826.5 791 L 823 796 L 821 796.5 L 822 799 L 824 799.5 L 822.5 800 L 820.5 797 L 813 805.5 L 813.5 807 L 812.5 806 L 809.5 809 Q 807.3 808.3 808 810.5 L 806 814 L 804 814.5 L 804.5 816 L 802.5 815 L 780 835.5 L 780.5 837 L 778.5 836 L 756 853.5 L 757 856 L 755 855.5 L 755.5 854 L 744 861.5 L 746 862.5 L 742.5 864 L 740.5 864 L 733 868.5 L 733.5 870 L 731.5 869 L 701 886.5 L 703 887.5 L 701.5 888 L 699.5 887 Q 691.3 888.8 687 894.5 L 686.5 896 L 686 894 L 684 894.5 L 684.5 896 L 681.5 895 L 654 906.5 L 656 907.5 L 654.5 908 L 651 907 Q 652.5 910.8 649.5 910 L 649.5 908 L 644 909.5 L 645.5 912 L 643 911.5 L 643.5 910 L 614 918.5 L 614.5 920 L 608.5 919 L 603.5 921 L 569 926.5 L 569.5 928 L 561.5 927 L 560.5 928 L 533.5 929 L 532.5 930 L 494.5 930 L 491.5 929 L 489.5 929 L 458.5 927 L 457.5 928 L 443 928 Q 445.3 922 438.5 924 L 414.5 919 Q 413.2 921.3 408.5 920 L 407.5 918 L 410.5 919 L 410.5 918 L 402.5 916 L 402.5 917 L 406 919.5 L 403 919.5 L 402.5 918 L 400 919.5 L 399 917.5 L 401 917.5 L 399.5 915 L 386.5 911 L 381 912 L 382 909.5 L 380 909 L 379.5 911 L 378 908 L 359.5 902 L 357.5 904 L 355 903.5 L 355.5 902 L 353 901.5 L 355.5 901 L 358.5 902 L 358.5 901 L 341.5 895 L 339.5 896 L 338.5 893 L 324.5 887 L 322.5 888 L 320 886.5 L 322 885.5 L 310.5 879 L 305.5 880 L 304.5 878 L 306 878.5 L 303.5 875 L 298.5 873 L 296.5 874 L 296.5 873 L 298 872.5 L 294.5 871 L 292 872 Q 293.1 869.3 290.5 870 Q 289.2 872.2 288 869.5 L 289.5 867 L 282.5 863 L 281 863.5 L 281.5 862 L 275.5 864 L 275.5 863 L 280 861.5 L 277.5 860 L 276 860.5 Q 278.3 859.3 275.5 858 L 273.5 857 L 272 857.5 Q 274.3 856.3 271.5 855 L 269.5 854 L 268.5 856 L 264.5 850 L 248.5 839 L 246.5 839 L 245 838.5 L 247 837.5 L 244 836.5 L 245 835.5 L 241.5 832 L 238.5 831 L 237 831.5 L 237 829.5 L 235.5 827 L 233.5 828 Q 230.8 826.8 233 825.5 L 228.5 821 L 226 819.5 Q 226.8 817.3 224.5 818 L 220 815 L 218.5 812 L 217.5 814 L 216.5 812 L 218 811.5 L 213.5 807 L 212 807.5 L 213 806.5 L 200 793.5 L 198.5 791 L 197 791.5 L 197.5 790 Q 195.3 790.8 196 788.5 L 190.5 783 L 187.5 784 L 185.5 782 L 184 781.5 Q 185.2 778.8 186.5 781 L 188.5 782 L 189 780.5 L 182.5 773 L 180.5 776 L 179.5 774 L 181 773.5 L 181 771.5 L 164.5 750 L 160.5 752 L 161.5 750 L 164 748.5 L 162.5 746 L 161 746.5 L 161 744.5 L 157.5 739 L 156 739.5 L 157 737.5 L 154 735.5 Q 156.3 734.3 153.5 733 L 152.5 736 L 152 733.5 L 153 731.5 L 150.5 728 L 147 727.5 L 148 724.5 L 146.5 721 L 144.5 722 L 144.5 721 L 146 720.5 L 138.5 707 L 137 707.5 L 138 705.5 L 129.5 690 L 128.5 693 L 128 690.5 L 129 687.5 L 117.5 662 L 116.5 664 L 116 662.5 L 116.5 661 L 114 659.5 L 115.5 660 L 117 659.5 L 109.5 639 L 108 639.5 L 109 636.5 L 108 636.5 Q 108.8 638.8 106.5 638 L 106.5 635 L 108 635.5 L 99.5 601 L 98.5 604 L 96 599.5 L 96.5 597 Q 98.8 596.3 98 598.5 Q 95.7 599.8 98.5 601 L 99 596.5 L 97.5 591 L 96 591.5 L 97 586.5 L 94 572.5 L 93 559 L 91 558.5 L 92 557.5 L 92 546.5 L 89 547.5 L 89 545.5 L 89.5 544 L 90.5 546 L 91 534.5 L 90 531.5 L 90 489.5 L 91 488.5 L 91 475.5 L 92 474.5 L 93 455.5 L 94 454.5 L 97 429.5 L 108 384.5 L 121 348.5 L 120 344 L 122.5 345 L 129 329.5 L 128.5 328 Q 129.8 330.3 131 327.5 L 132 323 L 130 322.5 Q 132 318.8 134 320.5 L 153 285.5 L 152 283.5 L 153 283.5 L 153.5 285 L 156 281.5 L 155.5 280 L 157 280.5 L 166 266.5 Q 163.8 265.3 166.5 264 Q 167.8 266.3 169 263.5 L 168 259.5 L 171 260.5 L 187 239 Q 189.7 240.1 189 237.5 L 188.5 236 L 189.5 237 L 193 233.5 L 201 224.5 L 200 222.5 L 201 222.5 L 201.5 224 L 204.5 220 L 209 216.5 L 208 214.5 Q 209.8 216.1 211.5 213 L 214 211.5 L 213 209.5 L 215 209.5 Q 214.2 206.9 217.5 208 L 224 201.5 L 223.5 200 Q 225 202.5 226.5 199 L 229.5 197 Q 234.3 194.5 232.5 192 L 234.5 192 L 253 177.5 L 252.5 176 L 254.5 177 L 261 171.5 L 260.5 170 L 262.5 171 L 288 153.5 L 286 152.5 L 288.5 152 Q 290 154.5 291.5 151 L 297 148.5 L 296.5 147 L 298.5 148 L 313 139.5 L 312 137.5 L 314 136.5 L 313 139 L 317 137.5 L 316.5 136 L 318.5 137 L 352 121.5 L 351.5 120 L 354.5 121 L 364 117.5 Q 361.8 116.3 364.5 115 L 364.5 117 L 375 113.5 L 373 112.5 L 374.5 112 L 377.5 113 L 395 107.5 Q 392.8 106.3 395.5 105 L 395.5 107 L 399 106.5 L 398.5 105 L 400.5 106 L 400.5 104 L 402.5 105 L 404.5 105 L 424.5 100 L 442 97.5 L 441.5 96 L 446.5 97 L 447.5 96 L 456.5 96 L 464.5 94 L 485 92.5 L 484.5 91 Z M 485 95 L 480 97 Q 475 98 474 96 L 467 98 L 465 97 L 454 98 L 451 100 L 449 99 Q 444 98 445 101 L 443 100 Q 439 99 440 102 L 437 101 Q 432 99 433 103 L 434 104 L 430 102 Q 426 101 427 104 L 426 103 L 422 103 Q 423 106 420 105 Q 418 103 417 106 L 412 105 L 412 107 L 408 106 L 408 108 L 405 107 L 405 109 L 404 111 L 404 110 L 401 108 L 401 110 L 399 109 Q 396 108 397 111 L 393 112 L 391 111 L 389 113 L 388 112 L 386 114 L 385 113 L 383 115 L 382 114 L 377 117 L 379 117 L 378 119 L 377 118 L 376 116 L 371 119 L 370 118 L 367 119 Q 365 122 364 120 Q 361 119 362 122 L 361 121 L 360 124 L 359 123 L 357 124 L 356 123 L 355 125 L 353 124 L 352 126 L 351 125 L 350 127 L 353 128 L 351 128 L 349 126 Q 347 129 346 127 L 345 129 L 344 128 L 342 129 Q 339 128 340 131 L 339 130 L 338 132 L 337 131 L 331 135 L 333 135 L 333 136 L 330 134 L 329 136 L 327 136 Q 328 138 326 137 L 324 137 L 323 139 L 322 138 L 315 143 L 317 143 L 317 144 L 314 142 L 313 144 L 312 143 L 311 145 L 310 144 L 309 146 L 307 146 Q 308 149 304 147 L 304 149 L 303 148 L 301 151 L 303 151 L 303 152 L 299 150 L 297 153 L 295 152 L 296 155 L 294 153 L 292 154 L 292 156 L 290 156 Q 289 158 293 157 L 293 158 L 290 157 L 288 158 L 286 158 L 285 160 Q 284 162 283 160 L 282 162 L 281 161 L 279 162 L 279 164 L 278 163 L 277 165 L 277 167 L 275 165 L 274 167 Q 273 169 272 167 L 270 168 L 270 170 L 269 169 L 267 172 L 267 174 L 266 173 L 264 174 L 264 176 L 263 175 Q 259 174 260 177 Q 259 179 258 177 L 256 180 L 253 181 L 251 184 L 249 185 L 245 189 Q 247 190 245 191 L 243 190 L 239 192 L 237 195 L 233 198 L 233 200 L 232 199 L 229 201 L 227 204 Q 225 208 224 205 L 222 209 L 221 208 L 214 216 L 206 223 Q 207 225 205 224 Q 200 226 203 228 L 201 228 Q 202 231 200 230 L 198 233 L 196 234 Q 192 235 192 240 L 190 241 Q 187 242 187 246 L 184 248 L 181 253 Q 178 252 179 256 L 178 255 L 175 261 Q 172 260 173 264 L 171 265 Q 168 266 170 268 L 168 268 L 167 271 Q 168 273 166 272 Q 163 273 165 275 L 164 275 L 163 278 L 161 278 L 161 281 Q 158 280 159 283 Q 155 284 159 286 L 160 284 L 160 287 L 157 286 Q 154 287 156 289 L 155 289 L 153 292 L 151 296 Q 152 298 149 297 L 147 302 Q 148 305 146 304 L 146 306 L 144 306 L 143 309 L 144 312 L 143 311 L 141 314 Q 142 316 140 315 L 140 317 L 139 317 L 139 319 L 137 320 L 137 322 L 134 328 Q 135 330 133 329 L 133 331 L 132 331 L 131 334 Q 132 336 130 335 L 130 337 L 129 337 L 129 339 L 127 343 L 127 345 Q 124 344 125 347 L 125 349 Q 121 348 123 354 Q 119 355 122 357 L 120 362 Q 116 363 119 365 L 117 369 L 117 371 Q 114 370 115 373 L 116 374 L 114 374 L 114 380 L 112 380 L 112 382 L 112 386 L 110 388 L 112 391 L 112 392 L 111 391 L 110 391 Q 111 394 109 393 L 109 395 Q 110 398 107 397 L 108 400 Q 109 402 107 401 L 107 403 L 106 405 Q 107 409 104 408 L 105 411 L 104 417 L 102 419 L 103 421 L 101 428 L 101 430 L 99 434 L 100 436 L 99 439 L 99 441 L 97 446 L 98 449 L 96 452 L 97 456 L 95 462 L 96 464 L 94 471 L 95 476 Q 96 482 93 485 L 94 495 L 94 497 L 93 500 L 94 505 L 93 506 L 93 520 L 93 522 L 94 525 L 95 541 L 95 540 L 96 540 L 95 542 L 96 545 L 94 548 L 96 554 L 96 563 L 98 570 L 98 569 L 99 569 L 97 574 L 98 577 L 100 576 L 101 577 L 99 577 L 98 580 L 101 590 L 100 593 L 102 596 L 101 598 L 104 604 L 103 606 L 104 608 L 104 610 Q 103 613 106 612 L 105 615 L 107 618 Q 105 619 108 621 L 107 623 L 109 623 L 110 620 L 112 625 L 111 627 L 112 628 L 110 625 L 108 626 L 110 631 L 112 635 L 111 636 L 113 638 L 112 639 L 113 641 L 113 643 L 115 643 L 114 645 L 115 648 Q 118 649 116 651 L 118 653 L 120 660 L 120 662 L 121 664 Q 124 665 122 667 L 125 673 L 125 675 L 127 675 L 126 677 L 128 677 Q 126 679 129 681 L 128 682 L 130 682 L 129 684 L 131 684 L 130 686 L 132 686 Q 133 684 134 687 L 131 688 L 134 688 L 136 688 L 135 690 L 133 689 L 133 691 Q 132 693 135 692 L 134 694 L 137 697 L 137 699 Q 136 701 139 700 L 138 702 L 140 702 L 139 704 L 141 704 Q 140 707 143 709 Q 142 712 145 711 L 145 713 L 147 712 L 145 715 L 146 716 Q 145 718 148 717 L 150 721 Q 149 724 152 723 L 153 726 Q 152 729 155 728 L 156 732 Q 157 734 159 732 L 158 734 L 160 738 Q 159 740 162 739 L 162 742 L 164 742 L 169 750 Q 168 753 171 752 L 173 757 L 178 762 Q 176 763 179 764 L 181 763 L 180 767 L 183 767 L 185 773 L 189 776 L 191 775 L 192 776 L 191 776 L 192 779 L 191 780 L 195 782 L 199 787 L 198 788 L 209 798 Q 208 800 211 799 Q 213 800 211 802 L 219 808 Q 218 810 221 809 L 222 809 L 221 811 L 230 818 Q 232 817 231 820 L 239 826 L 241 825 L 242 825 L 239 827 L 241 827 L 243 831 L 247 832 Q 249 836 251 832 L 250 836 Q 249 838 253 837 L 253 835 Q 255 834 254 837 L 254 839 Q 253 841 257 840 L 258 843 Q 260 846 261 843 Q 262 840 260 841 L 260 840 L 262 842 L 261 844 L 263 846 L 264 844 L 264 846 L 272 851 L 273 854 L 277 853 L 276 855 Q 277 857 279 855 L 281 858 Q 283 857 282 860 L 284 861 L 286 860 L 285 862 Q 286 864 288 862 L 292 865 L 295 864 L 297 864 L 297 867 L 294 865 L 293 867 L 305 872 L 306 874 L 306 872 L 310 874 L 309 873 L 307 874 Q 308 877 312 876 L 313 876 L 312 878 L 314 877 L 314 879 L 317 878 L 316 880 L 319 880 Q 321 879 320 882 L 322 881 L 323 883 L 324 880 L 325 883 L 327 882 L 327 884 Q 329 883 328 886 L 330 885 L 336 888 Q 338 892 340 888 Q 343 887 341 892 L 344 890 L 345 891 L 343 892 L 347 893 L 349 892 L 350 893 L 348 894 L 351 894 L 352 894 L 351 896 L 353 895 L 355 896 Q 356 899 358 897 L 358 899 Q 360 897 362 900 L 363 899 L 363 901 Q 366 902 365 900 L 366 900 Q 365 903 369 902 L 371 902 L 374 904 L 376 903 L 375 905 L 377 904 L 378 906 L 380 905 L 381 905 L 380 907 L 383 906 Q 385 905 384 908 L 387 908 L 390 907 L 391 908 L 389 909 L 392 910 Q 393 908 395 911 L 397 909 L 398 910 L 396 911 Q 397 913 399 911 L 405 914 Q 407 915 406 912 L 410 912 L 410 913 Q 406 912 407 915 L 412 914 L 411 913 L 413 914 L 412 916 L 414 915 Q 417 914 416 917 L 418 916 L 421 918 L 423 917 L 426 919 L 428 918 Q 429 920 434 919 L 437 921 L 439 920 Q 442 919 441 922 L 445 922 Q 446 919 448 923 L 452 922 L 452 920 L 455 922 L 452 923 Q 453 925 458 924 L 459 922 L 465 925 L 467 924 L 472 926 L 475 925 L 478 926 L 480 926 L 479 925 L 479 924 L 485 927 L 496 925 L 496 927 L 512 927 L 513 928 L 528 927 L 528 925 L 535 927 L 546 925 L 550 926 L 558 924 L 562 925 L 567 923 Q 569 924 568 922 L 567 922 L 568 920 L 570 924 L 574 923 L 573 921 L 576 922 Q 580 923 582 921 L 584 922 L 587 920 Q 591 921 593 919 L 595 920 L 606 918 Q 608 918 608 914 L 611 913 L 610 916 L 612 915 L 614 916 L 619 914 L 617 913 L 617 912 L 620 913 L 627 912 L 629 912 L 633 911 L 641 907 L 642 908 Q 643 905 649 905 L 651 905 L 655 903 L 657 903 L 660 901 L 659 900 L 659 899 L 661 900 Q 664 901 663 898 L 663 896 L 665 899 L 672 897 L 674 895 L 678 895 L 677 893 L 680 894 L 681 890 L 682 893 L 682 892 L 684 892 L 684 891 L 687 890 Q 689 891 688 889 L 690 889 L 696 886 Q 698 885 696 884 L 698 884 L 703 882 L 702 881 L 705 879 L 704 881 L 705 882 Q 706 878 712 878 Q 714 874 716 876 Q 715 873 719 874 L 720 871 L 723 872 L 723 870 L 728 868 L 729 864 L 732 865 L 741 860 Q 743 861 742 858 L 744 858 L 743 857 L 743 856 L 745 857 L 747 856 Q 748 852 750 855 L 753 853 L 754 851 Q 755 848 757 850 L 757 849 L 766 843 L 765 841 L 768 842 L 768 841 L 774 837 Q 773 834 777 835 L 776 834 L 779 833 L 781 830 Q 784 831 786 827 L 785 825 L 787 825 L 791 823 L 792 821 L 810 805 Q 809 802 812 803 L 815 799 Q 817 800 816 797 L 818 797 L 821 794 L 820 793 L 823 791 L 824 789 L 827 787 Q 829 786 827 785 L 829 784 L 834 779 L 834 777 L 837 775 Q 840 774 839 771 Q 842 769 841 767 L 843 768 Q 847 766 844 765 L 846 764 L 851 756 L 851 754 L 852 752 L 853 754 L 853 753 L 856 751 L 855 750 L 858 748 L 860 744 Q 862 745 861 743 Q 864 741 862 740 L 864 737 L 864 735 L 868 733 L 867 730 L 870 729 Q 869 726 872 727 L 871 726 L 873 725 L 873 723 L 877 717 Q 876 714 879 715 L 881 710 L 880 708 L 881 705 L 882 708 L 889 695 L 888 693 L 889 691 L 890 693 L 892 688 Q 895 686 893 685 L 900 672 L 900 669 L 906 653 Q 909 651 907 650 L 911 643 L 911 638 L 914 633 L 912 632 L 914 631 L 914 627 L 913 629 L 912 628 Q 913 625 915 627 L 917 620 L 917 618 L 920 612 L 919 610 L 921 605 L 920 600 L 922 600 L 925 583 L 927 580 Q 926 570 929 566 L 928 564 L 928 562 L 930 556 L 931 534 L 933 525 L 932 520 L 932 495 L 931 494 L 932 493 L 932 483 L 932 481 L 931 480 L 931 468 L 930 467 L 929 450 L 929 448 L 928 445 L 928 443 L 927 438 L 927 436 L 925 432 L 926 430 Q 923 428 924 423 L 924 421 L 922 414 L 921 418 L 920 418 Q 919 413 922 412 L 921 410 L 921 408 Q 918 407 919 403 L 919 401 L 918 398 L 917 400 L 914 396 L 915 394 L 916 398 L 918 397 L 915 389 L 915 387 Q 912 385 912 380 L 910 376 L 911 375 L 907 368 L 903 354 L 899 346 L 897 346 L 898 343 L 897 343 L 897 342 L 894 335 L 892 336 L 891 332 L 889 332 L 891 331 L 892 332 L 891 329 L 891 326 L 889 327 L 890 325 L 888 324 L 887 320 Q 884 321 882 317 L 885 318 L 885 317 L 885 315 L 883 314 L 883 312 L 881 316 L 880 316 L 880 312 Q 883 313 882 311 L 881 311 L 881 310 L 878 301 Q 875 300 876 303 L 874 304 L 876 301 L 872 293 L 871 289 Q 867 290 869 286 Q 866 285 867 288 L 865 288 L 864 284 L 866 284 L 866 281 Q 863 282 864 280 Q 860 278 863 277 L 862 276 L 858 272 Q 859 268 856 269 L 856 267 L 853 265 L 852 261 L 850 262 L 850 261 L 847 256 L 845 256 L 846 253 L 844 254 L 844 251 L 840 247 Q 838 249 837 247 L 839 247 L 839 244 L 837 245 L 834 244 L 836 243 L 835 241 L 831 236 L 829 238 L 830 236 Q 827 234 829 232 Q 826 233 827 230 L 825 230 L 822 225 Q 819 226 820 224 L 817 221 L 813 217 L 811 215 L 806 210 L 803 208 L 799 204 L 798 205 L 795 201 Q 796 198 793 199 L 793 201 Q 790 200 792 199 L 786 193 L 784 194 L 785 191 L 782 190 Q 783 187 780 188 L 778 185 L 776 184 Q 772 185 773 183 Q 773 179 768 179 L 766 176 L 764 175 Q 761 176 762 173 Q 759 174 758 171 Q 755 172 756 169 Q 753 170 752 167 L 750 168 L 747 167 L 749 167 L 750 167 L 735 156 L 732 157 L 731 154 L 729 155 L 729 154 L 724 150 L 722 151 L 720 151 L 722 150 L 715 145 L 713 146 L 713 145 Q 711 140 709 144 L 709 143 L 709 141 L 706 143 L 706 142 Q 708 143 707 141 L 705 140 Q 702 141 703 138 L 700 137 L 698 137 L 695 135 L 693 136 L 693 134 L 690 135 L 688 132 L 687 132 L 686 131 L 685 131 L 684 129 L 674 126 Q 671 127 672 124 L 670 125 L 669 124 L 664 123 Q 665 120 662 121 L 660 121 L 656 119 Q 654 116 653 120 Q 649 121 648 119 L 650 119 L 653 119 L 651 118 L 643 114 L 642 115 L 640 113 L 639 114 L 636 112 L 632 112 L 630 110 L 629 111 L 627 110 Q 623 109 624 112 L 622 112 L 620 111 L 617 112 L 616 110 L 619 109 L 618 107 L 616 108 L 615 106 L 609 105 Q 607 108 606 104 L 603 105 L 599 103 Q 597 105 596 102 Q 593 105 587 104 L 585 100 L 582 101 L 578 99 Q 572 101 571 98 L 547 96 L 544 97 L 538 95 L 536 96 Q 534 94 529 95 L 527 95 L 524 96 L 522 96 L 520 95 L 506 95 L 504 95 Q 498 94 497 96 L 496 95 L 485 95 Z M 588 101 L 587 103 L 592 103 Q 591 100 588 101 Z M 622 108 L 619 110 L 621 110 Q 622 112 623 110 Q 624 107 622 108 Z M 708 137 L 708 138 L 710 138 L 708 137 Z M 122 345 L 121 348 L 122 348 L 122 345 Z M 445 925 L 445 926 L 448 927 L 451 927 Q 449 924 445 925 Z " /><path fill="rgb(119,211,237)" stroke="rgb(119,211,237)" stroke-width="1" opacity="0.8705882352941177" d="M 548.5 91 L 549.5 93 L 548.5 91 Z " /><path fill="rgb(119,211,237)" stroke="rgb(119,211,237)" stroke-width="1" opacity="0.8705882352941177" d="M 464.5 92 L 467 92.5 L 464.5 93 L 464.5 92 Z " /><path fill="rgb(119,211,237)" stroke="rgb(119,211,237)" stroke-width="1" opacity="0.8705882352941177" d="M 461.5 99 L 464 99.5 L 461.5 100 L 461.5 99 Z " /><path fill="rgb(119,211,237)" stroke="rgb(119,211,237)" stroke-width="1" opacity="0.8705882352941177" d="M 441.5 101 L 442.5 103 L 441.5 101 Z " /><path fill="rgb(119,211,237)" stroke="rgb(119,211,237)" stroke-width="1" opacity="0.8705882352941177" d="M 447.5 101 L 446.5 103 L 447.5 101 Z " /><path fill="rgb(119,211,237)" stroke="rgb(119,211,237)" stroke-width="1" opacity="0.8705882352941177" d="M 576.5 101 L 583 102.5 Q 581.8 105.3 580.5 103 L 578.5 102 L 576 103.5 L 576.5 101 Z " /><path fill="rgb(119,211,237)" stroke="rgb(119,211,237)" stroke-width="1" opacity="0.8705882352941177" d="M 368.5 113 L 367.5 115 L 368.5 113 Z " /><path fill="rgb(119,211,237)" stroke="rgb(119,211,237)" stroke-width="1" opacity="0.8705882352941177" d="M 642.5 117 L 645 117.5 L 642.5 118 L 642.5 117 Z " /><path fill="rgb(119,211,237)" stroke="rgb(119,211,237)" stroke-width="1" opacity="0.8705882352941177" d="M 375.5 118 L 376 120 L 374 119.5 L 375.5 118 Z " /><path fill="rgb(119,211,237)" stroke="rgb(119,211,237)" stroke-width="1" opacity="0.8705882352941177" d="M 677.5 121 L 679.5 124 L 677.5 121 Z " /><path fill="rgb(119,211,237)" stroke="rgb(119,211,237)" stroke-width="1" opacity="0.8705882352941177" d="M 359.5 125 L 358.5 127 L 359.5 125 Z " /><path fill="rgb(119,211,237)" stroke="rgb(119,211,237)" stroke-width="1" opacity="0.8705882352941177" d="M 665 125 L 669 126.5 L 667.5 126 L 666 126.5 L 666.5 128 L 664 127.5 L 665 125 Z " /><path fill="rgb(119,211,237)" stroke="rgb(119,211,237)" stroke-width="1" opacity="0.8705882352941177" d="M 329.5 128 L 328.5 130 L 329.5 128 Z " /><path fill="rgb(119,211,237)" stroke="rgb(119,211,237)" stroke-width="1" opacity="0.8705882352941177" d="M 342.5 132 L 341.5 134 L 342.5 132 Z " /><path fill="rgb(119,211,237)" stroke="rgb(119,211,237)" stroke-width="1" opacity="0.8705882352941177" d="M 699.5 139 L 702 140.5 L 700.5 140 L 699.5 139 Z " /><path fill="rgb(119,211,237)" stroke="rgb(119,211,237)" stroke-width="1" opacity="0.8705882352941177" d="M 728.5 156 L 729.5 158 L 728.5 156 Z " /><path fill="rgb(119,211,237)" stroke="rgb(119,211,237)" stroke-width="1" opacity="0.8705882352941177" d="M 732.5 158 L 731.5 160 L 732.5 158 Z " /><path fill="rgb(119,211,237)" stroke="rgb(119,211,237)" stroke-width="1" opacity="0.8705882352941177" d="M 734.5 158 L 735.5 160 L 734.5 158 Z " /><path fill="rgb(119,211,237)" stroke="rgb(119,211,237)" stroke-width="1" opacity="0.8705882352941177" d="M 273.5 160 L 272.5 162 L 273.5 160 Z " /><path fill="rgb(119,211,237)" stroke="rgb(119,211,237)" stroke-width="1" opacity="0.8705882352941177" d="M 260.5 168 L 263 168.5 L 260.5 169 L 260.5 168 Z " /><path fill="rgb(119,211,237)" stroke="rgb(119,211,237)" stroke-width="1" opacity="0.8705882352941177" d="M 758.5 174 L 757.5 176 L 758.5 174 Z " /><path fill="rgb(119,211,237)" stroke="rgb(119,211,237)" stroke-width="1" opacity="0.8705882352941177" d="M 768.5 181 L 771 182.5 L 769.5 182 L 768.5 181 Z " /><path fill="rgb(119,211,237)" stroke="rgb(119,211,237)" stroke-width="1" opacity="0.8705882352941177" d="M 609.5 192 L 612.5 193 L 614.5 193 Q 624 191 627.5 195 L 629 194.5 L 628.5 196 L 630.5 197 L 631.5 195 L 632 196.5 L 631 197.5 L 634 200.5 L 635.5 203 L 638 201.5 L 636 205 L 638.5 204 L 639.5 206 L 637 206.5 L 641.5 215 L 643 214.5 L 642 217.5 L 645.5 226 L 646.5 223 L 648 228.5 L 647 231.5 L 651.5 246 L 652.5 243 L 654 249.5 L 653 253.5 L 656 261.5 L 656 263.5 L 660 286.5 L 660 292.5 L 661 293.5 L 662 314.5 L 663 315.5 L 662 317.5 L 663 318.5 L 663 332.5 L 664 334.5 Q 660.4 339.9 662 350.5 L 663 350.5 L 663.5 349 L 664 350.5 L 661 352 L 661.5 360 L 663 359.5 L 661.5 363 L 660.5 361 L 660 366.5 L 661 366.5 L 661.5 365 L 662 368 Q 656.8 366.2 659 373.5 L 658 378.5 L 658.5 380 L 657 379.5 L 657 384.5 L 655 390.5 Q 657.5 392 654 393.5 L 653 400.5 L 654 400.5 L 654.5 398 L 655 400.5 L 652 401.5 L 651 407.5 L 652 407.5 L 652.5 405 L 654 407.5 L 651.5 409 L 650 408.5 L 646 423.5 L 647 423.5 L 647.5 422 L 648 423.5 L 645 424.5 L 644 429.5 L 646 429.5 L 645.5 432 Q 643.3 431.3 644 433.5 L 643 433.5 L 642.5 432 L 639 443.5 L 640 446.5 L 639 446.5 L 638.5 444 L 627 474.5 L 627.5 476 L 626 475.5 L 623 483.5 L 624 486.5 L 621.5 491 L 620 490.5 Q 619.3 493.1 622 492 L 622 496 Q 619 497.3 620 493.5 L 619 493.5 L 616 506.5 L 617.5 514 L 618.5 512 L 619 513.5 L 618 517.5 L 620 528 L 623 528.5 L 621 529 L 621.5 534 L 623.5 531 L 624 533.5 L 623.5 535 L 622 534.5 L 623 560.5 L 622 561.5 L 622 568.5 L 619 585.5 L 613 605.5 L 614 607.5 L 613 607.5 L 612.5 606 L 612 608.5 L 614 610.5 L 613.5 613 L 611 612.5 Q 614.8 610.8 611.5 609 L 606 622.5 L 608 622.5 L 605 623.5 Q 598.6 641.6 586.5 654 Q 584.3 653.3 585 655.5 L 577.5 660 L 571.5 660 Q 564.5 659 561.5 654 L 560 654.5 Q 562.5 653 559 651.5 Q 559.8 649.3 557.5 650 L 555.5 647 L 554 647.5 L 554 645.5 L 553.5 644 L 552.5 646 L 552 644.5 L 553 642.5 L 550.5 639 L 548 640 L 548.5 638 L 550 638.5 L 547.5 634 L 547 635.5 L 547.5 637 L 545 635.5 Q 547.5 634 544 632.5 L 545 628.5 L 541 619 L 539 619.5 L 541 623.5 L 540 623.5 L 539.5 622 L 538 622.5 L 539 620.5 L 536 619.5 L 537 616 Q 539.7 617.1 539 614.5 L 536 613.5 L 538 613.5 L 537.5 611 L 536 611.5 L 537 609.5 L 532 613.5 L 526 620.5 L 528 623.5 L 525 623.5 L 524.5 622 L 516 628.5 Q 518.3 629.8 515.5 631 L 511.5 630 L 507.5 632 L 493.5 632 L 486.5 630 L 482 632 L 482 630 Q 479.3 631.1 480 628.5 L 480.5 627 L 467.5 623 L 464.5 624 L 461.5 622 Q 460 624.5 458.5 621 L 456.5 622 L 456 619.5 Q 456.8 616.9 453.5 618 L 446.5 615 L 444.5 616 L 444.5 614 L 439.5 615 L 439.5 614 L 442 613.5 L 422 606 L 421.5 608 L 419 607.5 L 418.5 606 L 418 608 Q 414.7 609.3 416 604.5 L 417.5 605 L 420 604.5 L 410.5 599 L 409 599.5 L 410 598.5 L 404 592.5 L 402.5 590 L 401.5 593 L 400 589.5 L 402 589.5 Q 398.3 585.3 399 578 L 397 577.5 L 399 568.5 L 397 568.5 L 398.5 565 Q 401.9 565.9 400 560.5 L 400.5 559 L 381 564.5 L 382 567 L 376.5 568 L 376 566 L 373 566.5 L 375 567.5 L 373.5 568 L 369.5 567 L 361 569.5 Q 363.3 570.8 360.5 572 L 360.5 570 L 358 570.5 L 358.5 572 L 354.5 571 L 354.5 573 L 349.5 572 L 350 573.5 Q 350.9 576.5 346.5 575 L 346.5 574 L 349 573.5 L 342.5 573 L 342.5 575 L 340.5 576 Q 339.1 572.4 333.5 573 L 333.5 574 L 335 574.5 L 333.5 575 L 330 573.5 L 332 572.5 L 326.5 570 L 326.5 572 L 323.5 567 L 321.5 567 L 320 566.5 L 320 556.5 L 319 551.5 L 321 541.5 L 320 537.5 L 323 536.5 L 322 531 L 325 529.5 L 324 526.5 L 326 526.5 L 329 516.5 L 328 513.5 Q 330 509.8 332 511.5 L 337 500.5 L 336.5 499 Q 338.8 499.8 338 497.5 L 337.5 496 L 339 496.5 L 343 489.5 L 342.5 488 L 345 486.5 L 350 478.5 L 349.5 477 L 350.5 478 L 354 474.5 L 357 470.5 L 356.5 469 L 357.5 470 L 362 465.5 Q 361.3 463.3 363.5 464 L 365.5 460 Q 367.3 462.7 369 458.5 Q 366.8 457.3 369.5 456 L 369.5 458 L 376 454 L 377.5 450 L 379.5 451 L 380.5 449 L 379 448.5 L 380.5 448 L 382.5 449 Q 386.2 447 384.5 445 L 386.5 446 L 391 442.5 L 389.5 442 Q 388.3 444.3 387 441.5 L 389.5 441 L 392.5 442 L 401 435.5 L 399 434.5 L 401 434 Q 399.9 431.3 402.5 432 Q 404.3 434.8 406 430.5 L 409 424.5 L 408.5 421 L 410 421.5 Q 410.8 419.3 408.5 420 L 408 417.5 L 409.5 416 L 410.5 420 L 412 414.5 L 411.5 413 L 413 413.5 L 417 403.5 L 416 398 L 418.5 399 L 421 391.5 L 420 389.5 L 423 388.5 L 427 377.5 L 425.5 378 L 424 377.5 L 426.5 376 L 428 376.5 L 426.5 373 L 425 373.5 Q 426.2 370.7 427.5 373 L 430 371.5 L 433 364.5 L 432 361.5 L 435 360.5 L 442 345.5 L 440.5 343 L 443 344.5 L 444 341.5 L 442 341.5 L 445 340.5 L 444 338.5 L 446 338.5 L 458 317.5 L 456.5 315 L 459 316.5 L 458 313.5 L 462 311.5 L 465 306.5 Q 462.7 305.3 465.5 304 L 470 300.5 L 472 295 L 476 292.5 L 475 290.5 L 478 289.5 L 477.5 288 L 478.5 289 L 482 285.5 L 489 276.5 L 488.5 275 L 490.5 276 L 497 268.5 Q 494.8 267.3 497.5 266 Q 498.7 268.3 500 265.5 L 499.5 264 L 502 265 L 503.5 262 L 505 261.5 L 504 258.5 L 505.5 259 L 507.5 259 L 514 253.5 L 513 252.5 Q 517.3 250.3 515.5 248 L 518 248.5 L 517.5 250 L 525 244.5 Q 522.2 242.8 526.5 241 L 526.5 243 L 529.5 241 L 533 238.5 Q 530.8 237.3 533.5 236 L 535.5 237 L 537 235.5 L 535.5 233 L 536.5 234 L 539 232.5 L 538.5 234 L 546 229.5 Q 543.8 228.3 546.5 227 L 548.5 228 L 549.5 225 L 551.5 226 L 552.5 223 L 554.5 224 L 561 219.5 L 560.5 218 L 562.5 219 L 573 212.5 L 572.5 211 L 574.5 212 L 576.5 208 L 579.5 209 L 586 205.5 L 584.5 203 L 587 203.5 L 586.5 205 L 589 203.5 L 585 200.5 L 586.5 200 L 590.5 200 L 594.5 201 L 612 193.5 L 609.5 193 L 607.5 194 L 607.5 193 L 609.5 192 Z M 614 216 L 603 222 L 606 222 L 606 223 L 602 222 L 602 224 L 600 223 L 589 229 L 590 231 L 587 232 L 587 230 L 572 239 L 574 239 L 574 240 L 572 239 L 568 241 Q 565 242 567 244 L 566 243 L 554 251 L 555 253 L 554 253 Q 555 250 553 251 L 551 254 Q 553 253 552 256 L 550 256 L 548 255 L 546 256 L 543 261 L 543 260 L 542 259 L 540 263 L 540 261 L 526 272 L 526 274 L 525 276 L 525 275 L 525 273 L 520 278 L 521 279 Q 520 281 519 279 L 514 284 L 515 285 L 514 284 Q 511 285 513 287 Q 511 291 510 288 L 503 295 L 504 296 L 503 295 L 502 297 L 503 298 L 500 297 L 501 300 L 500 299 Q 497 300 499 302 L 498 301 Q 495 302 497 304 L 496 303 L 491 310 L 491 312 L 490 311 L 485 318 L 487 318 L 486 320 L 484 319 L 480 325 L 480 327 L 480 329 L 479 326 L 478 329 L 478 331 Q 479 333 477 332 L 475 332 L 476 334 L 475 333 L 471 339 L 472 344 L 469 343 L 461 357 L 462 360 L 461 359 L 455 370 L 456 372 L 456 373 L 455 372 L 454 372 L 455 375 L 455 376 L 454 374 L 447 388 L 448 391 L 448 392 L 447 390 L 437 413 L 438 415 L 439 413 L 440 413 L 439 415 Q 440 417 438 416 L 436 416 L 437 418 L 437 420 L 436 417 L 431 429 L 432 432 L 432 433 L 431 431 L 428 438 L 431 440 L 428 440 L 428 438 L 420 448 Q 421 450 419 449 L 417 452 L 407 458 L 404 463 L 405 460 L 392 469 Q 389 468 390 472 L 389 471 L 383 475 L 381 477 L 383 479 L 380 478 L 376 483 L 376 487 L 375 488 L 372 487 L 367 493 L 368 495 Q 369 497 366 496 L 357 510 L 358 511 L 359 509 L 360 509 L 359 512 L 357 511 L 352 523 L 352 525 L 349 536 L 348 533 Q 344 540 343 550 L 345 549 L 345 551 L 360 548 L 357 547 L 362 544 L 361 547 L 404 536 Q 409 535 411 537 L 414 536 L 416 537 L 413 538 L 415 538 L 420 543 Q 421 540 423 545 L 423 546 L 422 545 L 420 544 L 423 551 L 423 561 L 422 562 L 423 567 L 423 569 L 422 567 L 421 567 L 421 576 L 423 576 L 424 579 L 423 581 L 424 583 L 427 584 Q 429 583 428 586 L 430 585 L 436 588 L 438 587 L 440 588 L 437 589 L 450 593 L 455 592 Q 457 593 455 595 L 475 602 L 477 601 L 476 603 L 481 604 L 483 603 L 482 605 L 485 605 L 485 603 L 486 606 Q 488 607 487 605 L 488 605 L 487 607 L 494 609 L 497 608 L 498 609 L 497 609 L 497 610 L 501 608 L 503 609 L 502 609 L 502 610 Q 505 611 504 608 L 507 609 L 509 608 Q 511 607 509 606 L 511 606 L 512 604 Q 509 602 514 600 L 513 603 L 517 600 L 516 598 L 518 598 L 521 595 L 520 594 L 521 592 L 522 594 L 522 593 L 529 586 L 528 585 L 530 585 Q 532 581 540 582 L 538 580 L 541 581 L 542 580 L 544 581 L 541 582 L 547 584 Q 552 586 553 593 L 555 592 L 554 594 Q 558 608 565 619 L 565 617 L 568 616 L 566 619 L 568 622 L 567 624 L 568 627 L 571 628 L 570 631 Q 572 634 574 630 L 576 633 L 585 616 L 584 613 Q 585 610 587 612 L 588 610 L 587 607 L 588 605 L 589 607 L 595 590 L 595 586 L 594 588 L 593 588 L 595 584 L 596 586 L 599 570 L 597 570 Q 596 567 599 568 L 600 566 L 600 538 L 598 526 L 597 528 L 593 519 L 594 515 L 595 522 L 596 522 L 594 509 L 593 512 L 592 508 L 594 508 L 594 506 L 593 506 L 592 504 L 593 497 L 594 503 L 595 497 L 594 493 L 596 493 L 597 490 L 596 487 L 597 485 L 598 487 L 600 480 L 600 478 L 602 477 L 603 475 Q 604 472 602 473 L 600 474 Q 599 471 602 472 L 603 471 L 602 468 L 606 464 L 607 466 L 609 460 L 608 458 L 610 458 L 612 453 L 612 451 L 609 455 L 608 454 L 612 450 L 613 451 L 619 433 L 617 433 L 618 430 Q 619 427 621 429 L 621 427 L 620 427 L 619 425 L 622 426 L 628 407 L 628 404 L 627 406 L 626 404 L 626 402 Q 625 399 628 400 L 629 398 L 630 400 L 633 389 L 632 384 L 633 377 Q 634 374 636 376 L 638 357 L 639 356 L 639 346 L 640 345 L 640 322 L 640 320 L 638 291 L 634 268 L 633 272 L 632 272 L 633 267 L 628 244 L 627 247 Q 624 246 626 245 L 625 244 L 625 243 L 624 239 L 626 239 L 621 223 L 620 225 L 616 220 Q 618 215 614 216 Z M 619 218 L 619 223 L 620 223 L 619 218 Z M 647 226 L 646 229 L 647 229 L 647 226 Z M 627 240 L 626 243 L 627 243 L 627 240 Z M 653 246 L 652 250 L 653 250 L 653 246 Z M 635 376 L 634 379 L 635 379 L 635 376 Z M 634 381 L 633 384 L 634 384 L 634 381 Z M 418 399 L 417 402 L 418 402 L 418 399 Z M 629 400 L 628 404 L 629 404 L 629 400 Z M 620 429 L 619 432 L 620 432 L 620 429 Z M 606 466 L 603 468 L 605 470 L 606 468 L 606 466 Z M 597 523 L 596 526 L 597 526 L 597 523 Z M 349 530 L 348 533 L 349 533 L 349 530 Z M 322 537 L 321 540 L 322 540 L 322 537 Z M 377 565 L 377 566 L 380 566 L 377 565 Z M 460 620 L 460 621 L 462 621 L 460 620 Z M 482 628 L 482 629 L 484 629 L 482 628 Z M 573 632 L 571 634 L 573 634 L 574 636 L 575 633 L 573 632 Z " /><path fill="rgb(119,211,237)" stroke="rgb(119,211,237)" stroke-width="1" opacity="0.8705882352941177" d="M 600.5 195 L 603 195.5 L 600.5 196 L 600.5 195 Z " /><path fill="rgb(119,211,237)" stroke="rgb(119,211,237)" stroke-width="1" opacity="0.8705882352941177" d="M 568.5 209 L 569 211.5 L 568 211.5 L 568.5 209 Z " /><path fill="rgb(119,211,237)" stroke="rgb(119,211,237)" stroke-width="1" opacity="0.8705882352941177" d="M 209.5 210 Q 212.5 211.5 209.5 213 Q 206.5 211.5 209.5 210 Z " /><path fill="rgb(119,211,237)" stroke="rgb(119,211,237)" stroke-width="1" opacity="0.8705882352941177" d="M 645.5 217 L 644.5 219 L 645.5 217 Z " /><path fill="rgb(119,211,237)" stroke="rgb(119,211,237)" stroke-width="1" opacity="0.8705882352941177" d="M 616.5 223 L 617.5 225 L 616.5 223 Z " /><path fill="rgb(119,211,237)" stroke="rgb(119,211,237)" stroke-width="1" opacity="0.8705882352941177" d="M 198.5 224 L 197.5 226 L 198.5 224 Z " /><path fill="rgb(119,211,237)" stroke="rgb(119,211,237)" stroke-width="1" opacity="0.8705882352941177" d="M 196.5 236 L 196 237.5 Q 195.3 239.8 197.5 239 L 199 238.5 L 196.5 240 L 195 237.5 L 196.5 236 Z " /><path fill="rgb(119,211,237)" stroke="rgb(119,211,237)" stroke-width="1" opacity="0.8705882352941177" d="M 832.5 240 L 833.5 242 L 832.5 240 Z " /><path fill="rgb(119,211,237)" stroke="rgb(119,211,237)" stroke-width="1" opacity="0.8705882352941177" d="M 833.5 245 L 836 246.5 Q 834.5 249.5 833 246.5 L 833.5 245 Z " /><path fill="rgb(119,211,237)" stroke="rgb(119,211,237)" stroke-width="1" opacity="0.8705882352941177" d="M 627.5 248 L 628 250.5 L 626 251.5 L 627.5 248 Z " /><path fill="rgb(119,211,237)" stroke="rgb(119,211,237)" stroke-width="1" opacity="0.8705882352941177" d="M 840.5 250 Q 843.1 249.2 842 252.5 L 841 252.5 L 840.5 250 Z " /><path fill="rgb(119,211,237)" stroke="rgb(119,211,237)" stroke-width="1" opacity="0.8705882352941177" d="M 627.5 253 Q 630.1 252.2 629 255.5 L 628 255.5 L 627.5 253 Z " /><path fill="rgb(119,211,237)" stroke="rgb(119,211,237)" stroke-width="1" opacity="0.8705882352941177" d="M 634.5 279 L 635 281.5 L 633 280.5 L 634.5 279 Z " /><path fill="rgb(119,211,237)" stroke="rgb(119,211,237)" stroke-width="1" opacity="0.8705882352941177" d="M 661.5 282 L 660.5 284 L 661.5 282 Z " /><path fill="rgb(119,211,237)" stroke="rgb(119,211,237)" stroke-width="1" opacity="0.8705882352941177" d="M 635.5 285 L 636 287.5 L 635 287.5 L 635.5 285 Z " /><path fill="rgb(119,211,237)" stroke="rgb(119,211,237)" stroke-width="1" opacity="0.8705882352941177" d="M 472.5 290 L 473.5 292 L 472.5 290 Z " /><path fill="rgb(119,211,237)" stroke="rgb(119,211,237)" stroke-width="1" opacity="0.8705882352941177" d="M 636.5 294 L 637 297.5 L 636 297.5 L 636.5 294 Z " /><path fill="rgb(119,211,237)" stroke="rgb(119,211,237)" stroke-width="1" opacity="0.8705882352941177" d="M 663.5 305 L 664 310.5 L 663 310.5 L 663.5 305 Z " /><path fill="rgb(119,211,237)" stroke="rgb(119,211,237)" stroke-width="1" opacity="0.8705882352941177" d="M 880.5 317 Q 883.5 318.5 880.5 320 L 880.5 317 Z " /><path fill="rgb(119,211,237)" stroke="rgb(119,211,237)" stroke-width="1" opacity="0.8705882352941177" d="M 349.5 320 L 352 320.5 L 349.5 321 L 349.5 320 Z " /><path fill="rgb(119,211,237)" stroke="rgb(119,211,237)" stroke-width="1" opacity="0.8705882352941177" d="M 534.5 320 L 537 321.5 L 535.5 322 L 534.5 320 Z " /><path fill="rgb(119,211,237)" stroke="rgb(119,211,237)" stroke-width="1" opacity="0.8705882352941177" d="M 539.5 320 L 544.5 321 L 545.5 320 L 563.5 320 L 566.5 321 L 568 320.5 Q 567.2 323.1 570.5 322 L 575.5 324 L 577.5 323 L 577.5 324 L 576 324.5 L 584.5 329 L 586 328.5 Q 583.3 330.2 587.5 332 L 589 331.5 Q 586.8 332.8 589.5 334 Q 590.8 331.8 592 334.5 Q 589.8 335.8 592.5 337 L 594.5 337 L 596.5 336 L 595.5 338 L 593.5 337 L 593 338.5 Q 594.3 341.3 595.5 339 Q 597.8 338.3 597 340.5 L 596 342.5 L 600 344.5 L 599 347.5 L 601.5 353 L 603 352.5 L 602 356.5 Q 604.9 361.1 604.5 369 L 606 368.5 L 605 373.5 Q 608.5 375 606 376.5 L 605.5 380 L 604.5 375 L 604 382.5 L 605 382.5 L 605.5 381 L 606 384 L 603.5 383 L 599 397.5 L 600 399.5 L 599 399.5 L 598.5 398 L 595 404.5 L 597 404.5 L 596 407 L 593.5 406 L 591 409.5 L 591.5 411 L 590 410.5 L 582.5 419 Q 579.9 418.2 581 421.5 L 580.5 424 L 578 423.5 L 578.5 422 L 563.5 430 L 552.5 432 L 537.5 432 L 534.5 431 L 531.5 432 L 531.5 430 L 529 430.5 L 529.5 432 Q 527.3 432.8 528 430.5 L 528.5 429 L 521.5 426 L 521.5 428 L 519.5 424 L 513.5 423 L 512 423.5 L 514 420.5 L 509.5 415 L 508 415.5 Q 510.2 414.3 507.5 413 Q 506.3 415.3 505 412.5 L 506 410.5 L 501.5 403 L 500.5 405 L 500 403.5 L 501 400.5 L 499.5 397 L 497.5 401 L 496 400.5 L 498 399.5 L 497 395.5 L 498 395.5 L 498.5 397 L 499 394.5 L 496 393 L 497 386.5 L 497 376.5 L 496 375.5 L 496 365.5 L 498 361.5 L 497.5 360 Q 499.8 359.3 499 361.5 L 500 361.5 L 502 354.5 L 501 352.5 L 502 352.5 L 502.5 354 L 505 349.5 L 504 347.5 Q 507.1 345.7 505.5 344 L 507.5 344 L 509 343.5 L 508.5 342 Q 510.3 344.8 512 340.5 L 513 338.5 L 512.5 337 Q 514.3 339.7 516 335.5 Q 513.3 333.7 517.5 332 L 519.5 333 Q 522.3 331.8 520 330.5 Q 518.7 326.3 523.5 328 L 525.5 328 L 541 321.5 L 539.5 320 Z M 548 342 Q 539 344 533 350 L 536 351 L 533 352 L 532 351 L 527 356 L 528 359 L 524 360 L 523 364 L 525 364 L 524 366 L 523 364 L 519 377 L 519 385 L 521 393 L 523 392 L 522 394 L 523 397 L 525 397 L 524 399 L 526 398 L 529 402 L 528 403 Q 529 405 531 403 Q 533 404 531 406 L 538 409 L 542 408 L 552 408 L 553 409 Q 559 410 562 407 L 563 405 L 561 406 L 560 404 L 563 404 Q 562 406 565 405 L 566 402 L 568 403 L 567 402 L 570 398 L 571 400 L 576 394 Q 575 390 578 391 L 577 389 L 578 387 L 579 389 L 580 386 L 580 383 L 579 385 L 578 385 L 580 381 L 581 383 L 582 378 L 580 375 L 581 372 L 582 375 L 582 370 L 579 368 Q 578 364 581 365 L 580 359 L 579 361 L 578 360 L 576 358 L 577 355 L 575 350 L 574 352 L 573 352 L 574 350 L 572 348 L 571 350 L 568 350 L 570 347 L 565 343 L 561 344 L 561 342 L 553 343 L 559 343 L 559 344 L 553 344 Q 553 341 548 342 Z M 499 362 L 498 365 L 499 365 L 499 362 Z M 498 365 L 497 370 L 498 370 L 498 365 Z M 498 389 L 497 392 L 498 392 L 498 389 Z M 542 409 L 542 410 L 544 410 L 542 409 Z " /><path fill="rgb(119,211,237)" stroke="rgb(119,211,237)" stroke-width="1" opacity="0.8705882352941177" d="M 893.5 322 L 896 323.5 L 894.5 324 L 893.5 322 Z " /><path fill="rgb(119,211,237)" stroke="rgb(119,211,237)" stroke-width="1" opacity="0.8705882352941177" d="M 348.5 323 L 355 323.5 L 348.5 324 L 348.5 323 Z " /><path fill="rgb(119,211,237)" stroke="rgb(119,211,237)" stroke-width="1" opacity="0.8705882352941177" d="M 530.5 323 L 529.5 325 L 530.5 323 Z " /><path fill="rgb(119,211,237)" stroke="rgb(119,211,237)" stroke-width="1" opacity="0.8705882352941177" d="M 347.5 325 Q 357.9 323.6 361 329.5 L 362 338.5 L 360 344 L 358 344.5 L 359 345.5 Q 355.9 347.2 357.5 349 Q 355.3 344.7 353 349.5 L 351.5 352 L 348 354.5 L 349 356.5 L 347.5 356 L 340 363.5 L 339 365.5 L 339.5 367 L 338.5 366 L 333 371.5 L 327 378.5 Q 329.3 379.8 326.5 381 Q 324.7 378.3 323 382.5 L 325 383.5 L 323.5 384 L 322 383.5 L 319 387.5 L 319 389.5 L 320 391.5 L 317.5 392 L 315.5 391 L 311 396.5 L 312 399.5 L 308.5 399 L 305 402.5 L 303 405.5 Q 305.3 406.8 302.5 408 L 301.5 407 L 297 411.5 L 295 414.5 Q 297.2 415.8 294.5 417 L 293.5 416 L 288 421.5 L 286 424.5 Q 288.3 425.8 285.5 427 L 284.5 426 L 279 431.5 L 276 435.5 Q 278.3 436.8 275.5 438 L 274.5 437 L 269 442.5 L 266 446.5 L 266.5 448 Q 264.7 445.3 263 449.5 L 259 454.5 L 259.5 456 L 258.5 455 L 254.5 459 Q 252.3 458.3 253 460.5 L 252.5 462 L 254 462.5 L 252.5 463 L 251 462.5 L 247 467.5 L 247.5 469 Q 246.2 466.7 245 469.5 L 247 470.5 Q 245.8 473.2 244.5 471 L 241 473.5 L 238 477.5 Q 240.3 478.8 237.5 480 L 236.5 479 L 233 482.5 L 231 485.5 L 232 488 L 229.5 487 L 223 494.5 L 223.5 496 L 220 498.5 L 222 502.5 L 220 503 L 219.5 499 L 219 505.5 Q 221.5 510.3 224 508.5 L 223 510.5 L 227 513 L 227 515.5 L 233.5 522 L 234.5 520 L 237 520.5 L 234 522 L 243.5 534 L 246 532.5 L 244 534.5 L 247.5 538 L 249 537.5 L 249 539.5 L 252.5 544 L 254 543.5 L 253 544.5 L 258 549.5 L 260.5 553 Q 261.8 550.8 263 553.5 L 263 555.5 L 265 558.5 L 267.5 561 L 271 560.5 L 271 564.5 L 273 567.5 L 277 570.5 L 276 568.5 L 279 570.5 L 280 572.5 L 279 574.5 L 291.5 589 Q 293.8 588.3 293 590.5 Q 295.5 595.3 298 593.5 Q 295.3 595.3 299.5 597 L 301 596.5 Q 298.5 598 302 599.5 L 304.5 603 Q 305.8 600.8 307 603.5 L 307 605.5 L 315.5 615 L 317 614.5 L 316 616.5 L 327 628.5 L 328 637.5 L 324 642.5 Q 326.3 643.8 323.5 645 L 320.5 644 L 315.5 645 Q 309.4 643.6 306.5 639 Q 305.3 641.2 304 638.5 L 305 637.5 L 302 634.5 L 301.5 633 L 300.5 634 Q 298.3 629.8 296 631.5 L 297 628.5 L 292.5 623 L 288 624 L 290 620.5 L 289 618 Q 286.3 619.1 287 616.5 Q 285.8 613.8 284.5 616 L 281 612.5 L 283 612.5 L 282 609 L 278.5 607 Q 277.3 609.3 276 606.5 Q 278.3 605.3 275.5 604 L 275 606 L 273 605.5 L 274 602.5 L 273.5 601 L 272 601.5 L 273 600.5 L 269.5 597 Q 266.9 597.8 268 594.5 L 267 592 L 262.5 589 L 261 589.5 Q 263.3 588.3 260.5 587 L 256.5 590 L 256.5 587 L 258.5 587 L 260 586.5 L 254.5 580 L 253 580.5 L 253 578.5 L 250.5 575 Q 249.2 577.3 248 574.5 Q 250.8 572.8 246.5 571 L 245.5 573 L 244 570.5 L 245 568.5 L 242 567.5 L 243 566.5 L 239 562.5 L 235.5 558 L 234.5 560 L 232 559.5 L 233 557.5 L 231 553.5 L 228.5 550 Q 226.8 552.7 225 548.5 L 226 546.5 L 222.5 543 L 221.5 544 Q 218.9 544.7 220 542 L 218 542 Q 219.1 544.7 216.5 544 L 218 541.5 L 216.5 539 Q 218.8 539.8 218 537.5 L 214.5 534 L 212 535.5 Q 215.7 533.8 212.5 532 L 209 533.5 Q 211.3 534.7 208.5 536 L 208 531.5 L 208.5 529 L 209.5 532 L 212 531.5 L 211 528 L 206.5 525 L 205 525.5 L 206 523.5 L 202.5 520 L 200 521.5 L 201 516.5 L 197.5 509 L 196.5 512 L 195 508.5 L 197 508.5 L 196 498.5 L 199 489.5 L 197 489.5 L 200 488.5 L 202 484.5 L 200 484 L 200.5 480 L 201 483 Q 204.8 484.5 204 481.5 L 207.5 477 L 209 477.5 L 208 474.5 L 209 472 L 211.5 473 L 212.5 470 Q 213.8 472.3 215 469.5 L 216 467.5 Q 213.8 466.3 216.5 465 L 217.5 466 L 220.5 463 L 224 460.5 L 225 458.5 L 224.5 457 L 226 457.5 L 228 454.5 L 233 448.5 L 232.5 447 L 234.5 448 L 239 442.5 L 238.5 441 Q 239.7 443.3 241 440.5 L 245 435.5 Q 242.3 433.7 246.5 432 L 247.5 433 L 252 428.5 L 255.5 424 L 261 419.5 L 265 413.5 L 264 411.5 L 265 411.5 Q 264.3 413.8 266.5 413 L 269.5 408 Q 271.8 408.8 271 406.5 Q 274.5 405 272 403.5 L 273 401.5 L 272.5 400 L 276.5 401 L 278 398.5 L 277.5 397 Q 279.3 399.7 281 395.5 Q 277.3 393.8 280.5 392 L 283.5 393 L 289 386.5 L 287 385.5 L 292 383.5 Q 289.2 381.8 293.5 380 L 294.5 381 L 300 375.5 L 302 372.5 L 301.5 371 Q 302.8 373.3 304 370.5 L 303.5 369 Q 307.5 369.5 308 366.5 L 309 364.5 L 307.5 362 Q 309.3 365.8 311 362.5 Q 308.5 361 312 359.5 L 314 356.5 L 313.5 355 Q 316.1 354.2 315 357.5 L 318 355.5 L 317 353.5 Q 318.3 350.8 319.5 353 L 322.5 350 L 326 347.5 L 329 342.5 L 328 339.5 L 328.5 338 L 329.5 340 L 330.5 337 L 333.5 336 L 332.5 339 L 335 337.5 Q 334.3 335.3 336.5 336 L 339 332.5 L 338 330.5 L 339.5 331 Q 341.8 331.8 341 329.5 L 347.5 325 Z M 313 358 L 313 360 L 315 359 L 313 358 Z M 274 401 L 274 403 L 276 402 L 274 401 Z " /><path fill="rgb(119,211,237)" stroke="rgb(119,211,237)" stroke-width="1" opacity="0.8705882352941177" d="M 363 336 L 365 336.5 L 363 337.5 L 363 336 Z " /><path fill="rgb(119,211,237)" stroke="rgb(119,211,237)" stroke-width="1" opacity="0.8705882352941177" d="M 548.5 343 L 551 343.5 L 548.5 344 L 548.5 343 Z " /><path fill="rgb(119,211,237)" stroke="rgb(119,211,237)" stroke-width="1" opacity="0.8705882352941177" d="M 663.5 344 L 664 347.5 L 663 347.5 L 663.5 344 Z " /><path fill="rgb(119,211,237)" stroke="rgb(119,211,237)" stroke-width="1" opacity="0.8705882352941177" d="M 634.5 364 L 636 366.5 L 635 369.5 L 634.5 374 L 634 369.5 L 635 366.5 L 634.5 364 Z " /><path fill="rgb(119,211,237)" stroke="rgb(119,211,237)" stroke-width="1" opacity="0.8705882352941177" d="M 905.5 365 L 906 367.5 L 905 367.5 L 905.5 365 Z " /><path fill="rgb(119,211,237)" stroke="rgb(119,211,237)" stroke-width="1" opacity="0.8705882352941177" d="M 719.5 370 L 723 371.5 L 720 372.5 L 723.5 373 L 730 378.5 L 732.5 382 L 734 381.5 L 733 383.5 L 736 384.5 L 735 385.5 L 739 389.5 L 741.5 393 Q 742.8 390.8 744 393.5 Q 741.5 395 745 396.5 L 748.5 401 Q 749.8 398.8 751 401.5 L 751 403.5 L 756.5 410 Q 757.8 407.8 759 410.5 L 758 412.5 L 762.5 417 L 764 416.5 L 763 418.5 L 764 421 L 768 420 L 767 422.5 L 773 426.5 L 771.5 426 L 770 426.5 L 775 429.5 L 775 431.5 L 776.5 434 L 777.5 432 L 778 433.5 Q 775.3 435.2 779.5 437 L 781 436.5 L 781 438.5 L 782.5 441 L 783.5 440 L 787 443.5 L 786 445.5 L 797.5 458 L 798 456.5 L 796.5 454 L 800 458.5 L 799 460.5 L 803.5 465 L 804.5 464 L 807 464.5 Q 803.3 466.3 806.5 468 L 808 467.5 L 807 469.5 Q 809.5 474.3 812 472.5 L 812 474.5 L 814.5 478 L 816 477.5 Q 813.8 478.8 816.5 480 L 821 482.5 L 824 486.5 L 822 486.5 L 828 497.5 L 828.5 501 L 830 500.5 L 827 511.5 L 823 518.5 L 823.5 520 Q 821.7 517.3 820 521.5 L 821 523.5 L 818.5 524 Q 816.3 523.3 817 525.5 L 814 527 L 815 529.5 L 813.5 529 L 809 533.5 L 803 540.5 L 804 542.5 L 803 542.5 L 802.5 541 L 799 545.5 L 800 547.5 L 799 547.5 L 798.5 546 L 796 548.5 L 796 550.5 L 795.5 552 L 794.5 550 L 791 554.5 L 791.5 556 L 790.5 555 L 787 558.5 L 787.5 560 L 786.5 559 L 783 562.5 L 782 564.5 Q 784.8 566.3 780.5 568 L 779.5 567 L 776 570.5 L 774 573.5 L 776 574.5 L 774.5 575 L 773.5 574 L 767 580.5 L 768 582.5 Q 766.8 585.2 765.5 583 L 760 588.5 L 759 590.5 L 759.5 592 Q 758.3 589.8 757 592.5 L 757.5 594 L 755.5 594 Q 753.3 593.3 754 595.5 L 752 598.5 L 752.5 600 L 750 599 L 751 601.5 L 749.5 601 L 743 607.5 L 739 612.5 L 739.5 614 Q 738.3 611.8 737 614.5 L 732 620.5 L 734 621.5 L 732.5 622 L 731 621.5 L 729 624.5 L 726.5 629 Q 725.3 626.8 724 629.5 L 724.5 631 Q 722.8 628.3 721 632.5 L 719 635.5 L 719 637.5 Q 719.9 640.5 715.5 639 L 713 643 Q 710.3 641.9 711 644.5 L 710.5 647 L 709.5 646 L 705.5 650 Q 702.9 649.2 704 652.5 L 702.5 656 Q 701 653.5 699.5 657 Q 697.3 656.3 698 658.5 Q 694.1 663.5 686.5 665 L 681.5 663 L 680 663.5 Q 682.5 662 679 660.5 L 677 657.5 Q 679.5 656 676 654.5 L 678 650.5 L 677.5 649 L 679 648.5 L 678 647.5 L 681 644.5 L 680 643.5 L 681 640 L 683.5 641 Q 687.2 639 685.5 637 Q 687.3 639.8 689 635.5 L 691 632.5 L 693.5 628 L 694.5 629 L 698 625.5 Q 697.3 623.3 699.5 624 L 705.5 617 Q 707.8 617.8 707 615.5 L 711 610.5 L 710 608.5 L 711 608.5 L 711.5 610 L 712.5 607 L 713.5 608 L 717 604.5 L 724 595.5 L 722 595.5 Q 723.3 592.8 724.5 595 L 727 593.5 L 728.5 591 L 730 591 L 730 589 Q 732.7 590.1 732 587.5 L 737 581.5 L 736.5 580 Q 738.3 582.7 740 578.5 L 739.5 577 L 744 574.5 L 745 572.5 L 744 568 L 747 568.5 L 745 569.5 L 746.5 571 L 750 567.5 L 753 563.5 L 752 561.5 L 753 561.5 L 753.5 563 L 761 554.5 Q 758.8 553.2 761.5 552 L 762.5 553 L 769 546.5 L 777 536 L 780 534.5 L 782 531.5 L 781.5 530 Q 783.3 532.8 785 528.5 L 784.5 527 Q 785.8 529.3 787 526.5 L 791 521.5 L 790.5 520 Q 792.3 522.8 794 518.5 L 792 517.5 L 792 515.5 L 794.5 513 L 798.5 513 L 802 509.5 L 801 506.5 L 804 503.5 L 802.5 502 Q 800.3 502.8 801 500.5 L 800 498.5 L 801.5 499 Q 804.1 499.7 803 497 Q 799.3 498.5 800 495.5 L 797.5 492 L 795.5 492 L 792 491 L 792.5 488 L 794 488.5 L 790.5 484 L 790 485.5 L 791 488 Q 787.7 489.3 789 484.5 L 785.5 480 L 788 481.5 L 785.5 478 L 784 478.5 L 785 477.5 L 780 472.5 L 779 469 L 775.5 467 L 774 467.5 L 775 465 Q 772.3 466.1 773 463.5 Q 771.8 460.7 770.5 463 Q 768.3 463.8 769 461.5 L 769 459.5 L 765.5 455 Q 764 457.5 762.5 454 Q 760.3 454.8 761 452.5 L 760.5 451 L 762 451.5 L 758.5 447 Q 756.8 449.7 755 445.5 L 755 443.5 L 751 437 Q 746.9 438.7 748 434.5 L 738.5 424 L 737 424.5 L 738 422.5 L 733.5 418 L 732 418.5 L 733 416.5 Q 730.5 411.7 728 413.5 Q 730.3 412.3 727.5 411 L 726 411.5 L 727 409 L 725 409 Q 726.1 406.3 723.5 407 L 722 407.5 L 723 405.5 L 721 405.5 L 722 404.5 L 719 401.5 L 717.5 399 L 716 399.5 Q 718.3 398.3 715.5 397 Q 713.8 399.7 712 395.5 L 713 393.5 Q 711.3 389.3 709.5 392 Q 707.3 392.8 708 390.5 L 704 385.5 L 707 384.5 L 708 377.5 L 707.5 376 L 708.5 377 Q 710.8 372.8 713 374.5 Q 712.1 371.5 716.5 373 L 719 372 L 719.5 370 Z M 819 482 L 820 484 Q 821 481 819 482 Z M 804 505 L 803 508 L 804 508 L 804 505 Z M 683 641 L 681 644 L 683 643 L 683 641 Z " /><path fill="rgb(119,211,237)" stroke="rgb(119,211,237)" stroke-width="1" opacity="0.8705882352941177" d="M 712.5 371 L 715 371.5 L 712.5 372 L 712.5 371 Z " /><path fill="rgb(119,211,237)" stroke="rgb(119,211,237)" stroke-width="1" opacity="0.8705882352941177" d="M 119.5 373 L 120 375.5 L 119 375.5 L 119.5 373 Z " /><path fill="rgb(119,211,237)" stroke="rgb(119,211,237)" stroke-width="1" opacity="0.8705882352941177" d="M 907.5 374 Q 909.8 373.3 909 375.5 L 907.5 374 Z " /><path fill="rgb(119,211,237)" stroke="rgb(119,211,237)" stroke-width="1" opacity="0.8705882352941177" d="M 577.5 376 L 578 378 L 576 377.5 L 577.5 376 Z " /><path fill="rgb(119,211,237)" stroke="rgb(119,211,237)" stroke-width="1" opacity="0.8705882352941177" d="M 918.5 383 L 919.5 385 Q 916.7 385.7 918.5 383 Z " /><path fill="rgb(119,211,237)" stroke="rgb(119,211,237)" stroke-width="1" opacity="0.8705882352941177" d="M 913.5 390 L 914 392.5 L 913 392.5 L 913.5 390 Z " /><path fill="rgb(119,211,237)" stroke="rgb(119,211,237)" stroke-width="1" opacity="0.8705882352941177" d="M 445.5 397 L 445.5 400 Q 442.5 398.5 445.5 397 Z " /><path fill="rgb(119,211,237)" stroke="rgb(119,211,237)" stroke-width="1" opacity="0.8705882352941177" d="M 712.5 398 L 713.5 400 Q 710.7 400.7 712.5 398 Z " /><path fill="rgb(119,211,237)" stroke="rgb(119,211,237)" stroke-width="1" opacity="0.8705882352941177" d="M 562.5 400 L 565 400.5 Q 562.9 403.8 562.5 400 Z " /><path fill="rgb(119,211,237)" stroke="rgb(119,211,237)" stroke-width="1" opacity="0.8705882352941177" d="M 533.5 404 L 534.5 406 L 533.5 404 Z " /><path fill="rgb(119,211,237)" stroke="rgb(119,211,237)" stroke-width="1" opacity="0.8705882352941177" d="M 624.5 409 L 625 412.5 L 624 412.5 L 624.5 409 Z " /><path fill="rgb(119,211,237)" stroke="rgb(119,211,237)" stroke-width="1" opacity="0.8705882352941177" d="M 96.5 418 L 98 419.5 L 97.5 422 L 96 420.5 L 96.5 418 Z " /><path fill="rgb(119,211,237)" stroke="rgb(119,211,237)" stroke-width="1" opacity="0.8705882352941177" d="M 258.5 419 L 257.5 421 L 258.5 419 Z " /><path fill="rgb(119,211,237)" stroke="rgb(119,211,237)" stroke-width="1" opacity="0.8705882352941177" d="M 250.5 427 L 248.5 430 L 250.5 427 Z " /><path fill="rgb(119,211,237)" stroke="rgb(119,211,237)" stroke-width="1" opacity="0.8705882352941177" d="M 753.5 443 L 754 444.5 L 752 445.5 L 753.5 443 Z " /><path fill="rgb(119,211,237)" stroke="rgb(119,211,237)" stroke-width="1" opacity="0.8705882352941177" d="M 221.5 460 L 220.5 462 L 221.5 460 Z " /><path fill="rgb(119,211,237)" stroke="rgb(119,211,237)" stroke-width="1" opacity="0.8705882352941177" d="M 928.5 460 L 929 464.5 L 928 464.5 L 928.5 460 Z " /><path fill="rgb(119,211,237)" stroke="rgb(119,211,237)" stroke-width="1" opacity="0.8705882352941177" d="M 90.5 466 L 91 469.5 L 90 469.5 L 90.5 466 Z " /><path fill="rgb(119,211,237)" stroke="rgb(119,211,237)" stroke-width="1" opacity="0.8705882352941177" d="M 776.5 470 L 777.5 472 Q 774.7 472.7 776.5 470 Z " /><path fill="rgb(119,211,237)" stroke="rgb(119,211,237)" stroke-width="1" opacity="0.8705882352941177" d="M 929.5 476 L 930 478.5 L 929 478.5 L 929.5 476 Z " /><path fill="rgb(119,211,237)" stroke="rgb(119,211,237)" stroke-width="1" opacity="0.8705882352941177" d="M 929.5 485 Q 932.1 484.2 931 487.5 L 930 487.5 L 929.5 485 Z " /><path fill="rgb(119,211,237)" stroke="rgb(119,211,237)" stroke-width="1" opacity="0.8705882352941177" d="M 88.5 499 L 89 502.5 L 88 502.5 L 88.5 499 Z " /><path fill="rgb(119,211,237)" stroke="rgb(119,211,237)" stroke-width="1" opacity="0.8705882352941177" d="M 88.5 525 L 89 527.5 L 88 527.5 L 88.5 525 Z " /><path fill="rgb(119,211,237)" stroke="rgb(119,211,237)" stroke-width="1" opacity="0.8705882352941177" d="M 929.5 531 L 930 533.5 L 929 533.5 L 929.5 531 Z " /><path fill="rgb(119,211,237)" stroke="rgb(119,211,237)" stroke-width="1" opacity="0.8705882352941177" d="M 811.5 533 L 810.5 535 L 811.5 533 Z " /><path fill="rgb(119,211,237)" stroke="rgb(119,211,237)" stroke-width="1" opacity="0.8705882352941177" d="M 246.5 534 L 247.5 536 L 246.5 534 Z " /><path fill="rgb(119,211,237)" stroke="rgb(119,211,237)" stroke-width="1" opacity="0.8705882352941177" d="M 89.5 536 L 88.5 538 L 89.5 536 Z " /><path fill="rgb(119,211,237)" stroke="rgb(119,211,237)" stroke-width="1" opacity="0.8705882352941177" d="M 384 536 L 387 536.5 L 384.5 538 L 384 536 Z " /><path fill="rgb(119,211,237)" stroke="rgb(119,211,237)" stroke-width="1" opacity="0.8705882352941177" d="M 391.5 536 L 392 538 L 389 537.5 L 391.5 536 Z " /><path fill="rgb(119,211,237)" stroke="rgb(119,211,237)" stroke-width="1" opacity="0.8705882352941177" d="M 623.5 537 L 624 539.5 L 623 539.5 L 623.5 537 Z " /><path fill="rgb(119,211,237)" stroke="rgb(119,211,237)" stroke-width="1" opacity="0.8705882352941177" d="M 417.5 538 L 418.5 540 L 417.5 538 Z " /><path fill="rgb(119,211,237)" stroke="rgb(119,211,237)" stroke-width="1" opacity="0.8705882352941177" d="M 88.5 539 Q 91.1 538.2 90 541.5 L 89 541.5 L 88.5 539 Z " /><path fill="rgb(119,211,237)" stroke="rgb(119,211,237)" stroke-width="1" opacity="0.8705882352941177" d="M 928.5 539 L 929.5 541 L 928.5 539 Z " /><path fill="rgb(119,211,237)" stroke="rgb(119,211,237)" stroke-width="1" opacity="0.8705882352941177" d="M 90.5 554 L 91 556.5 L 90 556.5 L 90.5 554 Z " /><path fill="rgb(119,211,237)" stroke="rgb(119,211,237)" stroke-width="1" opacity="0.8705882352941177" d="M 256.5 584 L 257.5 586 L 256.5 584 Z " /><path fill="rgb(119,211,237)" stroke="rgb(119,211,237)" stroke-width="1" opacity="0.8705882352941177" d="M 920 584 L 922 584.5 L 920 585.5 L 920 584 Z " /><path fill="rgb(119,211,237)" stroke="rgb(119,211,237)" stroke-width="1" opacity="0.8705882352941177" d="M 728.5 586 L 729.5 588 L 728.5 586 Z " /><path fill="rgb(119,211,237)" stroke="rgb(119,211,237)" stroke-width="1" opacity="0.8705882352941177" d="M 102 587 Q 105 586 104 589 Q 101 590 102 587 Z " /><path fill="rgb(119,211,237)" stroke="rgb(119,211,237)" stroke-width="1" opacity="0.8705882352941177" d="M 103.5 590 L 104 591.5 L 104 593.5 L 103.5 595 L 102 591.5 L 103.5 590 Z " /><path fill="rgb(119,211,237)" stroke="rgb(119,211,237)" stroke-width="1" opacity="0.8705882352941177" d="M 264.5 595 Q 267.8 593.9 267 596.5 L 266 598.5 L 266.5 600 L 264 599 Q 262.9 596.3 265.5 597 L 265.5 596 L 264.5 595 Z " /><path fill="rgb(119,211,237)" stroke="rgb(119,211,237)" stroke-width="1" opacity="0.8705882352941177" d="M 461.5 595 L 464 595.5 L 461.5 596 L 461.5 595 Z " /><path fill="rgb(119,211,237)" stroke="rgb(119,211,237)" stroke-width="1" opacity="0.8705882352941177" d="M 557.5 599 L 558.5 601 L 557.5 599 Z " /><path fill="rgb(119,211,237)" stroke="rgb(119,211,237)" stroke-width="1" opacity="0.8705882352941177" d="M 746.5 606 L 745.5 608 L 746.5 606 Z " /><path fill="rgb(119,211,237)" stroke="rgb(119,211,237)" stroke-width="1" opacity="0.8705882352941177" d="M 432.5 611 L 433 613.5 L 432 613.5 L 432.5 611 Z " /><path fill="rgb(119,211,237)" stroke="rgb(119,211,237)" stroke-width="1" opacity="0.8705882352941177" d="M 450 618 L 452 618.5 L 450 619.5 L 450 618 Z " /><path fill="rgb(119,211,237)" stroke="rgb(119,211,237)" stroke-width="1" opacity="0.8705882352941177" d="M 454.5 619 L 453.5 621 L 452 620.5 L 454.5 619 Z " /><path fill="rgb(119,211,237)" stroke="rgb(119,211,237)" stroke-width="1" opacity="0.8705882352941177" d="M 325.5 624 L 326.5 626 L 325.5 624 Z " /><path fill="rgb(119,211,237)" stroke="rgb(119,211,237)" stroke-width="1" opacity="0.8705882352941177" d="M 410.5 624 L 412.5 625 L 414 624.5 L 413.5 628 L 416 626.5 L 417.5 624 L 419.5 624 L 423 624.5 L 420 625.5 L 424 626 Q 422.8 623 426.5 624 L 428.5 624 L 432.5 625 Q 434 622.5 439.5 624 L 439.5 625 L 438 625.5 Q 449 627.5 455.5 634 L 458 632.5 L 457 634.5 L 464 639.5 L 462 640.5 Q 468 646.5 469.5 657 L 470.5 655 L 471 656.5 L 470 662 L 472 662.5 L 471 663.5 L 471 679.5 L 471.5 681 Q 468.8 680.4 470 686.5 L 468 693.5 L 470 696.5 L 468 695.5 L 467.5 694 L 463 706.5 L 464 709.5 L 463 709.5 L 462.5 707 L 461 710.5 L 461.5 712 L 460 711.5 L 452 724.5 Q 454.3 725.8 451.5 727 Q 450.3 724.8 449 727.5 L 446 731.5 L 446.5 733 L 445 733.5 L 447 734 L 446.5 736 L 443.5 735 L 440 738.5 L 439 740.5 L 440 744 L 436.5 743 L 429.5 751 L 431.5 750 L 430.5 752 L 428.5 751 L 413 765.5 L 413.5 767 L 411.5 766 L 401 774.5 L 401.5 776 L 399.5 776 L 393 780.5 Q 395.3 781.8 392.5 783 L 390 782 L 389.5 784 L 386.5 783 Q 385.3 785.3 380.5 784 L 376.5 783 L 375 783.5 Q 377.3 782.3 374.5 781 L 372 779.5 L 369.5 774 L 368.5 776 L 368 774.5 L 369 772.5 L 366.5 765 L 365.5 768 L 365 765.5 L 366 760 Q 361.5 761.8 363 756.5 Q 360.8 755.3 362 750.5 L 363 750.5 L 363.5 755 L 364 749.5 L 363 748.5 L 362.5 740 L 361.5 743 L 360 739.5 L 362 739.5 L 361.5 726 L 360.5 728 L 360 725.5 L 362 721.5 L 361 720.5 Q 362.5 715 360 713.5 L 360 711.5 L 360 701.5 L 361.5 701 L 361.5 700 Q 358.9 700.8 360 697.5 L 362 696.5 Q 359.8 697.8 362.5 699 L 363 694 L 361 693.5 L 364 693 Q 364.2 680.9 369 672.5 L 368 669.5 L 368 667.5 L 368.5 666 L 371 667.5 L 370 664.5 L 371 664.5 L 371.5 666 L 373 662.5 L 372.5 661 L 374 661.5 L 377 656.5 L 376.5 655 L 378 655.5 L 381 650.5 Q 378.8 649.3 381.5 648 Q 382.7 650.3 384 647.5 L 385 645.5 L 384.5 644 L 385.5 645 L 388.5 642 L 393 638.5 L 392.5 637 L 394.5 638 L 400 633.5 L 399.5 632 L 402.5 633 L 412 629 L 410.5 624 Z M 418 626 L 418 627 L 420 627 L 418 626 Z M 426 647 L 414 651 L 414 653 L 412 652 L 411 655 L 411 654 L 410 653 L 406 657 L 407 658 L 406 657 L 399 662 L 399 666 L 398 665 L 396 668 L 398 667 L 398 670 L 398 672 L 395 670 L 388 684 L 389 686 L 389 685 L 390 685 L 389 688 L 388 686 L 384 702 L 384 711 L 384 713 L 383 722 L 383 724 L 385 748 L 387 747 L 386 749 Q 385 753 387 755 L 386 757 L 388 759 L 390 754 L 390 756 L 390 757 Q 392 758 391 756 L 394 754 L 393 753 L 395 753 Q 397 752 395 751 L 401 745 L 399 749 L 409 741 L 407 740 L 411 737 L 410 739 L 413 737 L 415 734 L 417 732 L 417 728 Q 419 727 418 730 L 426 723 Q 425 719 428 720 Q 430 719 428 718 L 430 718 L 433 714 L 432 712 L 434 712 L 440 703 L 440 701 Q 439 697 442 698 L 441 697 Q 442 694 444 696 L 449 679 L 448 668 L 448 666 L 449 664 L 448 659 L 445 658 L 446 656 L 445 656 Q 442 657 443 655 L 440 656 L 441 653 L 438 651 L 440 650 Q 435 646 426 647 Z M 396 668 Q 394 671 397 670 L 396 668 Z M 362 703 L 361 709 L 362 709 L 362 703 Z M 365 755 L 364 759 L 365 759 L 365 755 Z " /><path fill="rgb(119,211,237)" stroke="rgb(119,211,237)" stroke-width="1" opacity="0.8705882352941177" d="M 577.5 624 L 576.5 626 L 577.5 624 Z " /><path fill="rgb(119,211,237)" stroke="rgb(119,211,237)" stroke-width="1" opacity="0.8705882352941177" d="M 442.5 625 L 446 626.5 L 444.5 626 Q 441.5 626.5 442.5 625 Z " /><path fill="rgb(119,211,237)" stroke="rgb(119,211,237)" stroke-width="1" opacity="0.8705882352941177" d="M 104.5 627 L 105 630.5 L 104 630.5 L 104.5 627 Z " /><path fill="rgb(119,211,237)" stroke="rgb(119,211,237)" stroke-width="1" opacity="0.8705882352941177" d="M 474 627 Q 477.7 625.5 477 628.5 L 474 628.5 L 474 627 Z " /><path fill="rgb(119,211,237)" stroke="rgb(119,211,237)" stroke-width="1" opacity="0.8705882352941177" d="M 574.5 627 Q 577.1 626.2 576 629.5 L 575 629.5 L 574.5 628 L 573 628.5 L 574.5 627 Z " /><path fill="rgb(119,211,237)" stroke="rgb(119,211,237)" stroke-width="1" opacity="0.8705882352941177" d="M 478.5 630 L 479 632 L 477 631.5 L 478.5 630 Z " /><path fill="rgb(119,211,237)" stroke="rgb(119,211,237)" stroke-width="1" opacity="0.8705882352941177" d="M 105.5 632 L 106.5 634 L 105.5 632 Z " /><path fill="rgb(119,211,237)" stroke="rgb(119,211,237)" stroke-width="1" opacity="0.8705882352941177" d="M 396.5 632 L 397.5 634 L 396.5 632 Z " /><path fill="rgb(119,211,237)" stroke="rgb(119,211,237)" stroke-width="1" opacity="0.8705882352941177" d="M 315.5 646 L 320 646.5 L 315.5 647 L 315.5 646 Z " /><path fill="rgb(119,211,237)" stroke="rgb(119,211,237)" stroke-width="1" opacity="0.8705882352941177" d="M 468.5 648 L 470.5 651 Q 468.3 651.8 469 649.5 L 468.5 648 Z " /><path fill="rgb(119,211,237)" stroke="rgb(119,211,237)" stroke-width="1" opacity="0.8705882352941177" d="M 416.5 651 L 419 651.5 L 416.5 652 L 416.5 651 Z " /><path fill="rgb(119,211,237)" stroke="rgb(119,211,237)" stroke-width="1" opacity="0.8705882352941177" d="M 911.5 654 L 912 656 L 910 655.5 L 911.5 654 Z " /><path fill="rgb(119,211,237)" stroke="rgb(119,211,237)" stroke-width="1" opacity="0.8705882352941177" d="M 126.5 671 L 127.5 673 L 126.5 671 Z " /><path fill="rgb(119,211,237)" stroke="rgb(119,211,237)" stroke-width="1" opacity="0.8705882352941177" d="M 122.5 678 L 121.5 680 L 122.5 678 Z " /><path fill="rgb(119,211,237)" stroke="rgb(119,211,237)" stroke-width="1" opacity="0.8705882352941177" d="M 364.5 681 L 363.5 683 L 364.5 681 Z " /><path fill="rgb(119,211,237)" stroke="rgb(119,211,237)" stroke-width="1" opacity="0.8705882352941177" d="M 159.5 728 L 158.5 730 L 159.5 728 Z " /><path fill="rgb(119,211,237)" stroke="rgb(119,211,237)" stroke-width="1" opacity="0.8705882352941177" d="M 360.5 729 L 361 737.5 L 360 737.5 L 360.5 729 Z " /><path fill="rgb(119,211,237)" stroke="rgb(119,211,237)" stroke-width="1" opacity="0.8705882352941177" d="M 361.5 744 L 362 748.5 L 361 748.5 L 361.5 744 Z " /><path fill="rgb(119,211,237)" stroke="rgb(119,211,237)" stroke-width="1" opacity="0.8705882352941177" d="M 860.5 750 L 863 750.5 Q 860.9 753.8 860.5 750 Z " /><path fill="rgb(119,211,237)" stroke="rgb(119,211,237)" stroke-width="1" opacity="0.8705882352941177" d="M 407.5 771 L 406.5 773 L 407.5 771 Z " /><path fill="rgb(119,211,237)" stroke="rgb(119,211,237)" stroke-width="1" opacity="0.8705882352941177" d="M 371.5 782 L 374 782.5 Q 374.8 784.8 372.5 784 L 371.5 782 Z " /><path fill="rgb(119,211,237)" stroke="rgb(119,211,237)" stroke-width="1" opacity="0.8705882352941177" d="M 817.5 792 L 819 792.5 L 816.5 794 L 817.5 792 Z " /><path fill="rgb(119,211,237)" stroke="rgb(119,211,237)" stroke-width="1" opacity="0.8705882352941177" d="M 213.5 800 L 214.5 802 L 213.5 800 Z " /><path fill="rgb(119,211,237)" stroke="rgb(119,211,237)" stroke-width="1" opacity="0.8705882352941177" d="M 240.5 837 L 241.5 839 L 240.5 837 Z " /><path fill="rgb(119,211,237)" stroke="rgb(119,211,237)" stroke-width="1" opacity="0.8705882352941177" d="M 753.5 848 L 752.5 850 L 753.5 848 Z " /><path fill="rgb(119,211,237)" stroke="rgb(119,211,237)" stroke-width="1" opacity="0.8705882352941177" d="M 750.5 862 L 751.5 864 L 750.5 862 Z " /><path fill="rgb(119,211,237)" stroke="rgb(119,211,237)" stroke-width="1" opacity="0.8705882352941177" d="M 301.5 877 L 302.5 879 L 300 878.5 L 301.5 877 Z " /><path fill="rgb(119,211,237)" stroke="rgb(119,211,237)" stroke-width="1" opacity="0.8705882352941177" d="M 313.5 882 L 314.5 884 L 312 883.5 L 313.5 882 Z " /><path fill="rgb(119,211,237)" stroke="rgb(119,211,237)" stroke-width="1" opacity="0.8705882352941177" d="M 707.5 884 L 706.5 886 L 705 885.5 L 707.5 884 Z " /><path fill="rgb(119,211,237)" stroke="rgb(119,211,237)" stroke-width="1" opacity="0.8705882352941177" d="M 317.5 885 L 318.5 887 L 317.5 885 Z " /><path fill="rgb(119,211,237)" stroke="rgb(119,211,237)" stroke-width="1" opacity="0.8705882352941177" d="M 626.5 916 L 627 918 L 623 917.5 L 626.5 916 Z " /><path fill="rgb(119,211,237)" stroke="rgb(119,211,237)" stroke-width="1" opacity="0.8705882352941177" d="M 576.5 920 L 579 920.5 L 576.5 921 L 576.5 920 Z " /><path fill="rgb(119,211,237)" stroke="rgb(119,211,237)" stroke-width="1" opacity="0.8705882352941177" d="M 473.5 922 L 474.5 924 L 473.5 922 Z " /><path fill="rgb(119,211,237)" stroke="rgb(119,211,237)" stroke-width="1" opacity="0.8705882352941177" d="M 433.5 924 L 436 924.5 L 433.5 925 L 433.5 924 Z " /><path fill="rgb(119,211,237)" stroke="rgb(119,211,237)" stroke-width="1" opacity="0.8705882352941177" d="M 541.5 924 L 544 924.5 L 541.5 925 L 541.5 924 Z " /><path fill="rgb(119,211,237)" stroke="rgb(119,211,237)" stroke-width="1" opacity="0.8705882352941177" d="M 439.5 925 L 442 925.5 L 436 928 L 436.5 926 Q 438 928.5 439.5 925 Z " /><path fill="rgb(119,211,237)" stroke="rgb(119,211,237)" stroke-width="1" opacity="0.8705882352941177" d="M 584.5 925 L 588 925.5 L 584.5 926 L 584.5 925 Z " /><path fill="rgb(119,211,237)" stroke="rgb(119,211,237)" stroke-width="1" opacity="0.8705882352941177" d="M 579 926 Q 582.8 924.5 582 927.5 L 579 927.5 L 579 926 Z " /><path fill="rgb(119,211,237)" stroke="rgb(119,211,237)" stroke-width="1" opacity="0.8705882352941177" d="M 572.5 927 L 576 927.5 L 572.5 928 L 572.5 927 Z " /></svg>